<svg width="367" height="183" viewBox="0 0 367 183" fill="none" xmlns="http://www.w3.org/2000/svg">
<g filter="url(#filter0_d_3276_10941)">
<rect x="20" y="20" width="327" height="143" rx="16" fill="white" shape-rendering="crispEdges"/>
<path d="M40.375 52.1641C39.5638 52.1641 38.8643 52.0251 38.2764 51.7471C37.693 51.4691 37.2419 51.0703 36.9229 50.5508C36.6038 50.0312 36.4443 49.4069 36.4443 48.6777H37.9688C37.9733 49.3431 38.1898 49.8695 38.6182 50.2568C39.0511 50.6396 39.6458 50.8311 40.4023 50.8311C40.8626 50.8311 41.2568 50.7627 41.585 50.626C41.9131 50.4893 42.1637 50.2979 42.3369 50.0518C42.5146 49.8057 42.6035 49.5208 42.6035 49.1973C42.6035 48.9102 42.5443 48.68 42.4258 48.5068C42.3118 48.3337 42.1546 48.1969 41.9541 48.0967C41.7536 47.9964 41.528 47.9144 41.2773 47.8506C41.0267 47.7868 40.7715 47.7207 40.5117 47.6523L39.3906 47.3721C39.0488 47.2855 38.7161 47.1784 38.3926 47.0508C38.069 46.9232 37.7751 46.7591 37.5107 46.5586C37.251 46.3581 37.0436 46.112 36.8887 45.8203C36.7337 45.5241 36.6562 45.1686 36.6562 44.7539C36.6562 44.1523 36.8044 43.6283 37.1006 43.1816C37.3968 42.735 37.8161 42.3887 38.3584 42.1426C38.9053 41.8965 39.5479 41.7734 40.2861 41.7734C41.0244 41.7734 41.6602 41.9033 42.1934 42.1631C42.7266 42.4229 43.139 42.7897 43.4307 43.2637C43.7269 43.7376 43.8841 44.2936 43.9023 44.9316H42.4053C42.3688 44.3757 42.1637 43.929 41.79 43.5918C41.4209 43.2546 40.9082 43.0859 40.252 43.0859C39.8236 43.0859 39.4567 43.1543 39.1514 43.291C38.8506 43.4232 38.6182 43.6123 38.4541 43.8584C38.2946 44.1045 38.2148 44.3893 38.2148 44.7129C38.2148 44.9772 38.2923 45.1937 38.4473 45.3623C38.6022 45.5264 38.7982 45.6608 39.0352 45.7656C39.2767 45.8704 39.5296 45.957 39.7939 46.0254C40.0583 46.0892 40.2998 46.1484 40.5186 46.2031L41.3936 46.4219C41.9085 46.5495 42.3734 46.7204 42.7881 46.9346C43.2074 47.1488 43.54 47.4359 43.7861 47.7959C44.0322 48.1514 44.1553 48.6071 44.1553 49.1631C44.1553 49.7783 44.0026 50.3115 43.6973 50.7627C43.3965 51.2093 42.9635 51.5557 42.3984 51.8018C41.8333 52.0433 41.1589 52.1641 40.375 52.1641ZM46.7598 47.7686V52H45.2969V41.9375H46.7393V45.9297H46.7734C46.9375 45.556 47.2018 45.2438 47.5664 44.9932C47.931 44.738 48.3958 44.6104 48.9609 44.6104C49.4577 44.6104 49.9089 44.7174 50.3145 44.9316C50.7246 45.1458 51.0505 45.4626 51.292 45.8818C51.5335 46.3011 51.6543 46.8229 51.6543 47.4473V52H50.1914V47.625C50.1914 47.0553 50.041 46.6224 49.7402 46.3262C49.444 46.0299 49.0452 45.8818 48.5439 45.8818C48.2204 45.8818 47.9219 45.9479 47.6484 46.0801C47.3796 46.2122 47.1631 46.4173 46.999 46.6953C46.8395 46.9733 46.7598 47.3311 46.7598 47.7686ZM55.332 52.1025C54.8535 52.1025 54.4251 52.0228 54.0469 51.8633C53.6732 51.6992 53.377 51.4577 53.1582 51.1387C52.9395 50.8151 52.8301 50.4141 52.8301 49.9355C52.8301 49.5254 52.9076 49.1882 53.0625 48.9238C53.222 48.6595 53.4362 48.4499 53.7051 48.2949C53.974 48.14 54.2793 48.0238 54.6211 47.9463C54.9629 47.8643 55.3161 47.8027 55.6807 47.7617C56.1364 47.7025 56.4941 47.6569 56.7539 47.625C57.0182 47.5885 57.2051 47.5339 57.3145 47.4609C57.4284 47.3835 57.4854 47.2581 57.4854 47.085V47.0508C57.4854 46.6999 57.3577 46.4173 57.1025 46.2031C56.8519 45.9844 56.4987 45.875 56.043 45.875C55.5964 45.875 55.2318 45.9821 54.9492 46.1963C54.6712 46.4105 54.5163 46.6816 54.4844 47.0098H53.0078C53.0352 46.5632 53.1742 46.1644 53.4248 45.8135C53.68 45.4626 54.0309 45.1846 54.4775 44.9795C54.9242 44.7744 55.4505 44.6719 56.0566 44.6719C56.6491 44.6719 57.1618 44.7721 57.5947 44.9727C58.0277 45.1732 58.3604 45.4512 58.5928 45.8066C58.8298 46.1621 58.9482 46.5768 58.9482 47.0508V52H57.5195V50.9746H57.4922C57.3874 51.1706 57.2461 51.3551 57.0684 51.5283C56.8906 51.7015 56.6605 51.8405 56.3779 51.9453C56.0954 52.0501 55.7467 52.1025 55.332 52.1025ZM55.6465 50.9336C56.0612 50.9336 56.4053 50.8607 56.6787 50.7148C56.9567 50.5645 57.1618 50.3662 57.2939 50.1201C57.4261 49.8695 57.4922 49.596 57.4922 49.2998V48.4658C57.3965 48.5387 57.1823 48.6071 56.8496 48.6709C56.5169 48.7301 56.1592 48.7871 55.7764 48.8418C55.5166 48.8783 55.2728 48.9398 55.0449 49.0264C54.8216 49.1084 54.6393 49.2246 54.498 49.375C54.3613 49.5208 54.293 49.7168 54.293 49.9629C54.2975 50.2682 54.4206 50.5075 54.6621 50.6807C54.9036 50.8493 55.2318 50.9336 55.6465 50.9336ZM60.3496 52V44.7812H61.751V45.9707H61.792C61.9242 45.5697 62.1338 45.2529 62.4209 45.0205C62.7126 44.7881 63.0794 44.6719 63.5215 44.6719C63.6309 44.6719 63.7311 44.6787 63.8223 44.6924C63.918 44.7015 63.9954 44.7129 64.0547 44.7266V46.1211C63.9909 46.0983 63.8861 46.0778 63.7402 46.0596C63.599 46.0368 63.4463 46.0254 63.2822 46.0254C63.0179 46.0254 62.7741 46.0869 62.5508 46.21C62.3275 46.3285 62.1475 46.513 62.0107 46.7637C61.8786 47.0143 61.8125 47.3333 61.8125 47.7207V52H60.3496ZM67.7461 52.1094C67.0534 52.1094 66.4518 51.9544 65.9414 51.6445C65.4355 51.3301 65.0413 50.8949 64.7588 50.3389C64.4808 49.7829 64.3418 49.138 64.3418 48.4043C64.3418 47.6706 64.4785 47.0234 64.752 46.4629C65.0299 45.9023 65.4219 45.4648 65.9277 45.1504C66.4336 44.8314 67.0283 44.6719 67.7119 44.6719C68.391 44.6719 68.9743 44.8291 69.4619 45.1436C69.9541 45.458 70.3301 45.8955 70.5898 46.4561C70.8496 47.0166 70.9795 47.6637 70.9795 48.3975V48.7734H65.0049V47.7002H69.5508C69.5417 47.3356 69.4551 47.0166 69.291 46.7432C69.127 46.4697 68.9059 46.2555 68.6279 46.1006C68.3545 45.9456 68.0446 45.8682 67.6982 45.8682C67.3109 45.8682 66.9759 45.9616 66.6934 46.1484C66.4108 46.3353 66.1943 46.5814 66.0439 46.8867C65.8936 47.1875 65.8184 47.5088 65.8184 47.8506V48.7598C65.8138 49.1517 65.889 49.5117 66.0439 49.8398C66.1989 50.1634 66.4199 50.4232 66.707 50.6191C66.9987 50.8105 67.3473 50.9062 67.7529 50.9062C68.0264 50.9062 68.2816 50.8607 68.5186 50.7695C68.7555 50.6738 68.9583 50.5417 69.127 50.373C69.2956 50.2044 69.4141 50.0085 69.4824 49.7852H70.8906C70.7995 50.25 70.6081 50.6579 70.3164 51.0088C70.0293 51.3551 69.6647 51.6263 69.2227 51.8223C68.7806 52.0137 68.2884 52.1094 67.7461 52.1094ZM78.2803 52.041C77.9066 52.041 77.5625 51.9772 77.248 51.8496C76.9382 51.722 76.6875 51.5215 76.4961 51.248C76.3092 50.9746 76.2158 50.6191 76.2158 50.1816V43.0107H77.6855V49.9424C77.6855 50.1976 77.722 50.3867 77.7949 50.5098C77.8724 50.6328 77.9749 50.7126 78.1025 50.749C78.2301 50.7809 78.3691 50.7969 78.5195 50.7969C78.6107 50.7969 78.6973 50.7946 78.7793 50.79C78.8613 50.7809 78.9251 50.7718 78.9707 50.7627L79.1211 51.9795C79.0345 51.9932 78.9206 52.0068 78.7793 52.0205C78.638 52.0342 78.4717 52.041 78.2803 52.041ZM75.1768 45.9844V44.7812H79.0664V45.9844H75.1768ZM83.127 52.1094C82.4388 52.1094 81.8327 51.9544 81.3086 51.6445C80.7845 51.3301 80.3743 50.8949 80.0781 50.3389C79.7865 49.7783 79.6406 49.1335 79.6406 48.4043C79.6406 47.666 79.7865 47.0166 80.0781 46.4561C80.3743 45.8955 80.7845 45.458 81.3086 45.1436C81.8327 44.8291 82.4388 44.6719 83.127 44.6719C83.8197 44.6719 84.4258 44.8291 84.9453 45.1436C85.4694 45.458 85.8773 45.8955 86.1689 46.4561C86.4652 47.0166 86.6133 47.666 86.6133 48.4043C86.6133 49.1335 86.4674 49.7783 86.1758 50.3389C85.8841 50.8949 85.4762 51.3301 84.9521 51.6445C84.4281 51.9544 83.8197 52.1094 83.127 52.1094ZM83.127 50.8652C83.5189 50.8652 83.8652 50.7627 84.166 50.5576C84.4668 50.3525 84.7038 50.0654 84.877 49.6963C85.0501 49.3226 85.1367 48.8919 85.1367 48.4043C85.1367 47.903 85.0501 47.4678 84.877 47.0986C84.7038 46.7249 84.4668 46.4333 84.166 46.2236C83.8698 46.0094 83.5234 45.9023 83.127 45.9023C82.7305 45.9023 82.3818 46.0072 82.0811 46.2168C81.7803 46.4264 81.5433 46.7181 81.3701 47.0918C81.2015 47.4655 81.1172 47.903 81.1172 48.4043C81.1217 48.8919 81.2083 49.3226 81.377 49.6963C81.5501 50.0654 81.7871 50.3525 82.0879 50.5576C82.3887 50.7627 82.735 50.8652 83.127 50.8652Z" fill="#818898"/>
<rect x="38" y="76" width="48" height="48" rx="24" fill="#F6F8FA"/>
<g clip-path="url(#clip0_3276_10941)">
<path d="M72 100C72 94.4772 67.5228 90 62 90C56.4772 90 52 94.4772 52 100C52 104.991 55.6569 109.128 60.4375 109.879V102.891H57.8984V100H60.4375V97.7969C60.4375 95.2906 61.9305 93.9062 64.2147 93.9062C65.3088 93.9062 66.4531 94.1016 66.4531 94.1016V96.5625H65.1922C63.9499 96.5625 63.5625 97.3334 63.5625 98.1242V100H66.3359L65.8926 102.891H63.5625V109.879C68.3431 109.128 72 104.991 72 100Z" fill="#1877F2"/>
<path d="M65.8926 102.891L66.3359 100H63.5625V98.1242C63.5625 97.3333 63.9499 96.5625 65.1922 96.5625H66.4531V94.1016C66.4531 94.1016 65.3088 93.9062 64.2146 93.9062C61.9305 93.9062 60.4375 95.2906 60.4375 97.7969V100H57.8984V102.891H60.4375V109.879C60.9544 109.96 61.4768 110 62 110C62.5232 110 63.0456 109.96 63.5625 109.879V102.891H65.8926Z" fill="white"/>
</g>
<path d="M36.6562 142V133.375H41.9531V134.312H37.6875V137.148H41.4961V138.086H37.6875V142H36.6562ZM44.9531 142.082C44.543 142.082 44.1758 142.014 43.8516 141.877C43.5273 141.736 43.2695 141.527 43.0781 141.25C42.8906 140.973 42.7969 140.629 42.7969 140.219C42.7969 139.863 42.8652 139.574 43.002 139.352C43.1426 139.129 43.3281 138.955 43.5586 138.83C43.793 138.701 44.0566 138.604 44.3496 138.537C44.6465 138.471 44.9492 138.418 45.2578 138.379C45.6523 138.324 45.9629 138.283 46.1895 138.256C46.416 138.229 46.5762 138.184 46.6699 138.121C46.7676 138.059 46.8164 137.949 46.8164 137.793V137.758C46.8164 137.422 46.6953 137.146 46.4531 136.932C46.2148 136.717 45.8789 136.609 45.4453 136.609C45.0156 136.609 44.668 136.715 44.4023 136.926C44.1406 137.133 43.9961 137.387 43.9688 137.688H42.9258C42.9453 137.309 43.0625 136.973 43.2773 136.68C43.4922 136.383 43.7852 136.148 44.1562 135.977C44.5273 135.805 44.957 135.719 45.4453 135.719C45.9258 135.719 46.3418 135.805 46.6934 135.977C47.0488 136.145 47.3223 136.381 47.5137 136.686C47.7051 136.99 47.8008 137.348 47.8008 137.758V142H46.8164V141.121H46.793C46.7188 141.27 46.6094 141.418 46.4648 141.566C46.3203 141.715 46.125 141.838 45.8789 141.936C45.6367 142.033 45.3281 142.082 44.9531 142.082ZM45.0938 141.191C45.5 141.191 45.8301 141.121 46.084 140.98C46.3379 140.836 46.5234 140.646 46.6406 140.412C46.7578 140.178 46.8164 139.926 46.8164 139.656V138.883C46.7422 138.953 46.5449 139.018 46.2246 139.076C45.9043 139.131 45.5664 139.184 45.2109 139.234C44.9727 139.266 44.7461 139.32 44.5312 139.398C44.3203 139.473 44.1484 139.58 44.0156 139.721C43.8828 139.857 43.8164 140.043 43.8164 140.277C43.8203 140.566 43.9355 140.791 44.1621 140.951C44.3887 141.111 44.6992 141.191 45.0938 141.191ZM51.6445 142.094C51.0977 142.094 50.6113 141.959 50.1855 141.689C49.7637 141.416 49.4316 141.041 49.1895 140.564C48.9512 140.084 48.832 139.535 48.832 138.918C48.832 138.293 48.9492 137.74 49.1836 137.26C49.4219 136.779 49.75 136.402 50.168 136.129C50.5898 135.855 51.0742 135.719 51.6211 135.719C52.1641 135.719 52.6211 135.834 52.9922 136.064C53.3633 136.295 53.6484 136.576 53.8477 136.908C54.0469 137.24 54.1562 137.562 54.1758 137.875H53.168C53.1328 137.668 53.0527 137.469 52.9277 137.277C52.8066 137.082 52.6367 136.922 52.418 136.797C52.2031 136.672 51.9375 136.609 51.6211 136.609C51.2656 136.609 50.9531 136.709 50.6836 136.908C50.4141 137.104 50.2031 137.375 50.0508 137.723C49.9023 138.066 49.8281 138.465 49.8281 138.918C49.8281 139.363 49.9043 139.758 50.0566 140.102C50.2129 140.441 50.4258 140.709 50.6953 140.904C50.9688 141.096 51.2812 141.191 51.6328 141.191C51.9062 141.191 52.1543 141.137 52.377 141.027C52.6035 140.914 52.7832 140.762 52.916 140.57C53.0488 140.379 53.1172 140.168 53.1211 139.938H54.1758C54.1484 140.289 54.0352 140.631 53.8359 140.963C53.6367 141.291 53.3535 141.562 52.9863 141.777C52.6191 141.988 52.1719 142.094 51.6445 142.094ZM57.7734 142.094C57.1992 142.094 56.6992 141.959 56.2734 141.689C55.8477 141.416 55.5156 141.041 55.2773 140.564C55.043 140.088 54.9258 139.539 54.9258 138.918C54.9258 138.293 55.041 137.74 55.2715 137.26C55.5059 136.779 55.834 136.402 56.2559 136.129C56.6816 135.855 57.1797 135.719 57.75 135.719C58.3242 135.719 58.8145 135.855 59.2207 136.129C59.6309 136.402 59.9434 136.779 60.1582 137.26C60.373 137.74 60.4805 138.293 60.4805 138.918V139.188H55.4648V138.344H59.4609C59.4492 138 59.3672 137.699 59.2148 137.441C59.0625 137.18 58.8574 136.977 58.5996 136.832C58.3418 136.684 58.0508 136.609 57.7266 136.609C57.3555 136.609 57.0371 136.701 56.7715 136.885C56.5059 137.064 56.3027 137.299 56.1621 137.588C56.0254 137.877 55.957 138.184 55.957 138.508V139.152C55.957 139.523 56.0293 139.863 56.1738 140.172C56.3184 140.48 56.5254 140.729 56.7949 140.916C57.0684 141.1 57.3945 141.191 57.7734 141.191C58.0312 141.191 58.2695 141.148 58.4883 141.062C58.7109 140.973 58.9004 140.848 59.0566 140.688C59.2168 140.527 59.3281 140.34 59.3906 140.125H60.3867C60.3086 140.52 60.1465 140.865 59.9004 141.162C59.6582 141.455 59.3535 141.684 58.9863 141.848C58.6191 142.012 58.2148 142.094 57.7734 142.094ZM64.4531 142.094C64.0508 142.094 63.6836 142.012 63.3516 141.848C63.0195 141.68 62.7422 141.418 62.5195 141.062H62.4961V142H61.5117V133.375H62.4961V136.727H62.5195C62.7188 136.379 62.9902 136.125 63.334 135.965C63.6777 135.801 64.0508 135.719 64.4531 135.719C64.9922 135.719 65.4609 135.852 65.8594 136.117C66.2578 136.383 66.5664 136.756 66.7852 137.236C67.0039 137.713 67.1133 138.27 67.1133 138.906C67.1133 139.539 67.0039 140.096 66.7852 140.576C66.5664 141.053 66.2578 141.426 65.8594 141.695C65.4609 141.961 64.9922 142.094 64.4531 142.094ZM64.3008 141.215C64.6602 141.215 64.9766 141.129 65.25 140.957C65.5234 140.781 65.7383 140.521 65.8945 140.178C66.0508 139.834 66.1289 139.41 66.1289 138.906C66.1289 138.398 66.0508 137.975 65.8945 137.635C65.7383 137.295 65.5234 137.039 65.25 136.867C64.9766 136.695 64.6602 136.609 64.3008 136.609C63.918 136.609 63.5859 136.703 63.3047 136.891C63.0234 137.078 62.8066 137.344 62.6543 137.688C62.502 138.031 62.4258 138.438 62.4258 138.906C62.4258 139.371 62.502 139.777 62.6543 140.125C62.8066 140.473 63.0234 140.742 63.3047 140.934C63.5859 141.121 63.918 141.215 64.3008 141.215ZM70.8867 142.094C70.3164 142.094 69.8105 141.959 69.3691 141.689C68.9277 141.416 68.582 141.041 68.332 140.564C68.082 140.084 67.957 139.535 67.957 138.918C67.957 138.293 68.082 137.74 68.332 137.26C68.582 136.779 68.9277 136.402 69.3691 136.129C69.8105 135.855 70.3164 135.719 70.8867 135.719C71.4609 135.719 71.9668 135.855 72.4043 136.129C72.8457 136.402 73.1914 136.779 73.4414 137.26C73.6914 137.74 73.8164 138.293 73.8164 138.918C73.8164 139.535 73.6914 140.084 73.4414 140.564C73.1953 141.041 72.8516 141.416 72.4102 141.689C71.9688 141.959 71.4609 142.094 70.8867 142.094ZM70.8867 141.191C71.2617 141.191 71.5938 141.096 71.8828 140.904C72.1758 140.709 72.4043 140.441 72.5684 140.102C72.7363 139.758 72.8203 139.363 72.8203 138.918C72.8203 138.465 72.7363 138.066 72.5684 137.723C72.4043 137.375 72.1777 137.104 71.8887 136.908C71.5996 136.709 71.2656 136.609 70.8867 136.609C70.5078 136.609 70.1719 136.709 69.8789 136.908C69.5898 137.104 69.3633 137.375 69.1992 137.723C69.0352 138.066 68.9531 138.465 68.9531 138.918C68.957 139.363 69.041 139.758 69.2051 140.102C69.3691 140.441 69.5957 140.709 69.8848 140.904C70.1777 141.096 70.5117 141.191 70.8867 141.191ZM77.5898 142.094C77.0195 142.094 76.5137 141.959 76.0723 141.689C75.6309 141.416 75.2852 141.041 75.0352 140.564C74.7852 140.084 74.6602 139.535 74.6602 138.918C74.6602 138.293 74.7852 137.74 75.0352 137.26C75.2852 136.779 75.6309 136.402 76.0723 136.129C76.5137 135.855 77.0195 135.719 77.5898 135.719C78.1641 135.719 78.6699 135.855 79.1074 136.129C79.5488 136.402 79.8945 136.779 80.1445 137.26C80.3945 137.74 80.5195 138.293 80.5195 138.918C80.5195 139.535 80.3945 140.084 80.1445 140.564C79.8984 141.041 79.5547 141.416 79.1133 141.689C78.6719 141.959 78.1641 142.094 77.5898 142.094ZM77.5898 141.191C77.9648 141.191 78.2969 141.096 78.5859 140.904C78.8789 140.709 79.1074 140.441 79.2715 140.102C79.4395 139.758 79.5234 139.363 79.5234 138.918C79.5234 138.465 79.4395 138.066 79.2715 137.723C79.1074 137.375 78.8809 137.104 78.5918 136.908C78.3027 136.709 77.9688 136.609 77.5898 136.609C77.2109 136.609 76.875 136.709 76.582 136.908C76.293 137.104 76.0664 137.375 75.9023 137.723C75.7383 138.066 75.6562 138.465 75.6562 138.918C75.6602 139.363 75.7441 139.758 75.9082 140.102C76.0723 140.441 76.2988 140.709 76.5879 140.904C76.8809 141.096 77.2148 141.191 77.5898 141.191ZM82.4766 139.773L82.4531 138.543H82.6641L85.4883 135.812H86.7188L83.707 138.742H83.6133L82.4766 139.773ZM81.5508 142V133.375H82.5352V142H81.5508ZM85.6523 142L83.1328 138.965L83.8359 138.273L86.918 142H85.6523Z" fill="#1A1B25"/>
<rect x="101.5" y="76" width="48" height="48" rx="24" fill="#F6F8FA"/>
<g clip-path="url(#clip1_3276_10941)">
<path d="M130.812 90H120.188C117.599 90 115.5 92.0987 115.5 94.6875V105.312C115.5 107.901 117.599 110 120.188 110H130.812C133.401 110 135.5 107.901 135.5 105.312V94.6875C135.5 92.0987 133.401 90 130.812 90Z" fill="url(#paint0_radial_3276_10941)"/>
<path d="M130.812 90H120.188C117.599 90 115.5 92.0987 115.5 94.6875V105.312C115.5 107.901 117.599 110 120.188 110H130.812C133.401 110 135.5 107.901 135.5 105.312V94.6875C135.5 92.0987 133.401 90 130.812 90Z" fill="url(#paint1_radial_3276_10941)"/>
<path d="M125.501 92.1875C123.379 92.1875 123.113 92.1968 122.279 92.2347C121.448 92.2728 120.88 92.4045 120.383 92.5977C119.869 92.7972 119.433 93.0641 118.999 93.4985C118.565 93.9328 118.298 94.3687 118.098 94.8823C117.904 95.3792 117.772 95.9472 117.735 96.7785C117.697 97.6119 117.688 97.8783 117.688 100C117.688 102.122 117.697 102.387 117.735 103.221C117.773 104.052 117.905 104.62 118.098 105.117C118.297 105.631 118.564 106.067 118.999 106.501C119.433 106.935 119.869 107.203 120.382 107.403C120.879 107.596 121.447 107.727 122.279 107.765C123.112 107.803 123.378 107.813 125.5 107.813C127.622 107.813 127.887 107.803 128.72 107.765C129.552 107.727 130.121 107.596 130.618 107.403C131.131 107.203 131.567 106.935 132.001 106.501C132.435 106.067 132.702 105.631 132.902 105.117C133.094 104.62 133.226 104.052 133.265 103.221C133.303 102.387 133.312 102.122 133.312 100C133.312 97.8783 133.303 97.612 133.265 96.7787C133.226 95.947 133.094 95.3793 132.902 94.8826C132.702 94.3687 132.435 93.9328 132.001 93.4985C131.566 93.064 131.131 92.797 130.617 92.5977C130.119 92.4045 129.551 92.2727 128.719 92.2347C127.886 92.1968 127.621 92.1875 125.498 92.1875H125.501ZM124.8 93.5954C125.008 93.5951 125.24 93.5954 125.501 93.5954C127.587 93.5954 127.834 93.6029 128.658 93.6403C129.419 93.6752 129.833 93.8024 130.108 93.9094C130.473 94.0509 130.733 94.2202 131.006 94.4938C131.279 94.7672 131.449 95.0276 131.591 95.3922C131.698 95.6672 131.825 96.0806 131.86 96.8423C131.897 97.6659 131.905 97.9133 131.905 99.9983C131.905 102.083 131.897 102.331 131.86 103.154C131.825 103.916 131.698 104.329 131.591 104.604C131.449 104.969 131.279 105.229 131.006 105.502C130.733 105.775 130.473 105.945 130.108 106.086C129.833 106.194 129.419 106.321 128.658 106.355C127.834 106.393 127.587 106.401 125.501 106.401C123.415 106.401 123.167 106.393 122.344 106.355C121.582 106.32 121.169 106.193 120.893 106.086C120.529 105.944 120.268 105.775 119.995 105.502C119.721 105.228 119.552 104.969 119.41 104.604C119.303 104.329 119.176 103.915 119.141 103.154C119.104 102.33 119.096 102.083 119.096 99.9963C119.096 97.91 119.104 97.664 119.141 96.8404C119.176 96.0787 119.303 95.6652 119.41 95.3898C119.552 95.0252 119.721 94.7648 119.995 94.4914C120.268 94.218 120.529 94.0487 120.893 93.9068C121.169 93.7994 121.582 93.6724 122.344 93.6374C123.065 93.6048 123.344 93.5951 124.8 93.5934V93.5954ZM129.671 94.8926C129.153 94.8926 128.734 95.3121 128.734 95.8298C128.734 96.3473 129.153 96.7673 129.671 96.7673C130.189 96.7673 130.609 96.3473 130.609 95.8298C130.609 95.3122 130.189 94.8923 129.671 94.8923V94.8926ZM125.501 95.988C123.285 95.988 121.489 97.7844 121.489 100C121.489 102.216 123.285 104.011 125.501 104.011C127.716 104.011 129.512 102.216 129.512 100C129.512 97.7845 127.716 95.988 125.501 95.988H125.501ZM125.501 97.3959C126.939 97.3959 128.105 98.5617 128.105 100C128.105 101.438 126.939 102.604 125.501 102.604C124.062 102.604 122.897 101.438 122.897 100C122.897 98.5617 124.062 97.3959 125.501 97.3959Z" fill="white"/>
</g>
<path d="M101.688 133.375V142H100.656V133.375H101.688ZM103.984 138.379V142H103V135.812H103.961V136.809H103.984C104.121 136.508 104.338 136.252 104.635 136.041C104.932 135.826 105.324 135.719 105.812 135.719C106.23 135.719 106.615 135.809 106.967 135.988C107.318 136.164 107.6 136.432 107.811 136.791C108.025 137.15 108.133 137.605 108.133 138.156V142H107.148V138.227C107.148 137.691 107.008 137.289 106.727 137.02C106.449 136.746 106.078 136.609 105.613 136.609C105.312 136.609 105.039 136.67 104.793 136.791C104.547 136.912 104.35 137.104 104.201 137.365C104.057 137.623 103.984 137.961 103.984 138.379ZM113.852 137.688H112.879C112.875 137.359 112.754 137.098 112.516 136.902C112.281 136.707 111.965 136.609 111.566 136.609C111.188 136.609 110.879 136.691 110.641 136.855C110.406 137.02 110.289 137.234 110.289 137.5C110.289 137.734 110.379 137.92 110.559 138.057C110.738 138.193 110.977 138.297 111.273 138.367L112.27 138.602C112.863 138.742 113.297 138.953 113.57 139.234C113.844 139.516 113.98 139.867 113.98 140.289C113.98 140.672 113.877 140.998 113.67 141.268C113.467 141.537 113.188 141.742 112.832 141.883C112.477 142.023 112.074 142.094 111.625 142.094C111.184 142.094 110.783 142.023 110.424 141.883C110.064 141.742 109.773 141.527 109.551 141.238C109.328 140.945 109.203 140.574 109.176 140.125H110.16C110.195 140.492 110.336 140.764 110.582 140.939C110.828 141.115 111.168 141.203 111.602 141.203C112.031 141.203 112.369 141.123 112.615 140.963C112.861 140.803 112.984 140.586 112.984 140.312C112.984 140.078 112.898 139.898 112.727 139.773C112.559 139.648 112.336 139.555 112.059 139.492L111.062 139.258C110.488 139.121 110.053 138.906 109.756 138.613C109.463 138.32 109.316 137.949 109.316 137.5C109.316 137.148 109.412 136.84 109.604 136.574C109.795 136.305 110.059 136.096 110.395 135.947C110.734 135.795 111.125 135.719 111.566 135.719C112.211 135.719 112.748 135.893 113.178 136.24C113.611 136.588 113.836 137.07 113.852 137.688ZM116.992 142.047C116.727 142.047 116.469 141.996 116.219 141.895C115.969 141.793 115.764 141.633 115.604 141.414C115.443 141.191 115.363 140.902 115.363 140.547V134.312H116.348V140.395C116.348 140.633 116.383 140.807 116.453 140.916C116.523 141.021 116.615 141.088 116.729 141.115C116.842 141.143 116.961 141.156 117.086 141.156C117.156 141.156 117.223 141.152 117.285 141.145C117.352 141.137 117.402 141.129 117.438 141.121L117.602 141.977C117.531 141.992 117.445 142.008 117.344 142.023C117.246 142.039 117.129 142.047 116.992 142.047ZM114.461 136.656V135.812H117.543V136.656H114.461ZM120.602 142.082C120.191 142.082 119.824 142.014 119.5 141.877C119.176 141.736 118.918 141.527 118.727 141.25C118.539 140.973 118.445 140.629 118.445 140.219C118.445 139.863 118.514 139.574 118.65 139.352C118.791 139.129 118.977 138.955 119.207 138.83C119.441 138.701 119.705 138.604 119.998 138.537C120.295 138.471 120.598 138.418 120.906 138.379C121.301 138.324 121.611 138.283 121.838 138.256C122.064 138.229 122.225 138.184 122.318 138.121C122.416 138.059 122.465 137.949 122.465 137.793V137.758C122.465 137.422 122.344 137.146 122.102 136.932C121.863 136.717 121.527 136.609 121.094 136.609C120.664 136.609 120.316 136.715 120.051 136.926C119.789 137.133 119.645 137.387 119.617 137.688H118.574C118.594 137.309 118.711 136.973 118.926 136.68C119.141 136.383 119.434 136.148 119.805 135.977C120.176 135.805 120.605 135.719 121.094 135.719C121.574 135.719 121.99 135.805 122.342 135.977C122.697 136.145 122.971 136.381 123.162 136.686C123.354 136.99 123.449 137.348 123.449 137.758V142H122.465V141.121H122.441C122.367 141.27 122.258 141.418 122.113 141.566C121.969 141.715 121.773 141.838 121.527 141.936C121.285 142.033 120.977 142.082 120.602 142.082ZM120.742 141.191C121.148 141.191 121.479 141.121 121.732 140.98C121.986 140.836 122.172 140.646 122.289 140.412C122.406 140.178 122.465 139.926 122.465 139.656V138.883C122.391 138.953 122.193 139.018 121.873 139.076C121.553 139.131 121.215 139.184 120.859 139.234C120.621 139.266 120.395 139.32 120.18 139.398C119.969 139.473 119.797 139.58 119.664 139.721C119.531 139.857 119.465 140.043 119.465 140.277C119.469 140.566 119.584 140.791 119.811 140.951C120.037 141.111 120.348 141.191 120.742 141.191ZM127.398 144.531C126.934 144.531 126.514 144.459 126.139 144.314C125.768 144.174 125.463 143.963 125.225 143.682C124.99 143.404 124.848 143.062 124.797 142.656H125.816C125.906 142.988 126.092 143.236 126.373 143.4C126.658 143.568 127 143.652 127.398 143.652C127.938 143.652 128.361 143.508 128.67 143.219C128.979 142.934 129.133 142.527 129.133 142V140.98H129.109C128.922 141.312 128.678 141.574 128.377 141.766C128.08 141.953 127.703 142.047 127.246 142.047C126.695 142.047 126.225 141.914 125.834 141.648C125.447 141.383 125.15 141.014 124.943 140.541C124.736 140.068 124.633 139.52 124.633 138.895C124.633 138.277 124.742 137.73 124.961 137.254C125.18 136.773 125.486 136.398 125.881 136.129C126.279 135.855 126.742 135.719 127.27 135.719C127.656 135.719 127.971 135.783 128.213 135.912C128.459 136.037 128.65 136.186 128.787 136.357C128.928 136.529 129.035 136.68 129.109 136.809H129.156V135.812H130.117V142C130.117 142.609 129.99 143.1 129.736 143.471C129.486 143.842 129.154 144.111 128.74 144.279C128.326 144.447 127.879 144.531 127.398 144.531ZM127.375 141.156C127.934 141.156 128.365 140.961 128.67 140.57C128.979 140.18 129.133 139.625 129.133 138.906C129.133 138.418 129.064 138.004 128.928 137.664C128.791 137.324 128.592 137.066 128.33 136.891C128.072 136.711 127.762 136.621 127.398 136.621C127.012 136.621 126.688 136.719 126.426 136.914C126.164 137.105 125.965 137.373 125.828 137.717C125.695 138.061 125.629 138.457 125.629 138.906C125.629 139.355 125.693 139.75 125.822 140.09C125.955 140.426 126.15 140.688 126.408 140.875C126.666 141.062 126.988 141.156 127.375 141.156ZM131.43 142V135.812H132.367V136.785H132.391C132.504 136.465 132.684 136.207 132.93 136.012C133.176 135.816 133.492 135.719 133.879 135.719C133.969 135.719 134.051 135.723 134.125 135.73C134.203 135.738 134.262 135.746 134.301 135.754V136.75C134.262 136.738 134.186 136.725 134.072 136.709C133.963 136.689 133.836 136.68 133.691 136.68C133.465 136.68 133.254 136.732 133.059 136.838C132.863 136.943 132.707 137.107 132.59 137.33C132.473 137.553 132.414 137.84 132.414 138.191V142H131.43ZM137.102 142.082C136.691 142.082 136.324 142.014 136 141.877C135.676 141.736 135.418 141.527 135.227 141.25C135.039 140.973 134.945 140.629 134.945 140.219C134.945 139.863 135.014 139.574 135.15 139.352C135.291 139.129 135.477 138.955 135.707 138.83C135.941 138.701 136.205 138.604 136.498 138.537C136.795 138.471 137.098 138.418 137.406 138.379C137.801 138.324 138.111 138.283 138.338 138.256C138.564 138.229 138.725 138.184 138.818 138.121C138.916 138.059 138.965 137.949 138.965 137.793V137.758C138.965 137.422 138.844 137.146 138.602 136.932C138.363 136.717 138.027 136.609 137.594 136.609C137.164 136.609 136.816 136.715 136.551 136.926C136.289 137.133 136.145 137.387 136.117 137.688H135.074C135.094 137.309 135.211 136.973 135.426 136.68C135.641 136.383 135.934 136.148 136.305 135.977C136.676 135.805 137.105 135.719 137.594 135.719C138.074 135.719 138.49 135.805 138.842 135.977C139.197 136.145 139.471 136.381 139.662 136.686C139.854 136.99 139.949 137.348 139.949 137.758V142H138.965V141.121H138.941C138.867 141.27 138.758 141.418 138.613 141.566C138.469 141.715 138.273 141.838 138.027 141.936C137.785 142.033 137.477 142.082 137.102 142.082ZM137.242 141.191C137.648 141.191 137.979 141.121 138.232 140.98C138.486 140.836 138.672 140.646 138.789 140.412C138.906 140.178 138.965 139.926 138.965 139.656V138.883C138.891 138.953 138.693 139.018 138.373 139.076C138.053 139.131 137.715 139.184 137.359 139.234C137.121 139.266 136.895 139.32 136.68 139.398C136.469 139.473 136.297 139.58 136.164 139.721C136.031 139.857 135.965 140.043 135.965 140.277C135.969 140.566 136.084 140.791 136.311 140.951C136.537 141.111 136.848 141.191 137.242 141.191ZM141.262 142V135.812H142.223V136.809H142.246C142.371 136.496 142.596 136.236 142.92 136.029C143.244 135.822 143.617 135.719 144.039 135.719C144.465 135.719 144.83 135.822 145.135 136.029C145.443 136.236 145.664 136.496 145.797 136.809H145.82C145.957 136.504 146.191 136.246 146.523 136.035C146.859 135.824 147.258 135.719 147.719 135.719C148.098 135.719 148.439 135.799 148.744 135.959C149.049 136.119 149.291 136.363 149.471 136.691C149.654 137.02 149.746 137.438 149.746 137.945V142H148.762V137.945C148.762 137.465 148.629 137.123 148.363 136.92C148.102 136.713 147.793 136.609 147.438 136.609C146.984 136.609 146.631 136.748 146.377 137.025C146.123 137.299 145.996 137.645 145.996 138.062V142H145.012V137.84C145.012 137.469 144.891 137.172 144.648 136.949C144.406 136.723 144.098 136.609 143.723 136.609C143.332 136.609 142.988 136.746 142.691 137.02C142.395 137.289 142.246 137.691 142.246 138.227V142H141.262Z" fill="#1A1B25"/>
<rect x="163" y="76" width="48" height="48" rx="24" fill="#F6F8FA"/>
<g clip-path="url(#clip2_3276_10941)">
<path d="M190.901 98.5056C192.082 99.3492 193.529 99.8456 195.091 99.8456V96.8408C194.795 96.841 194.5 96.8101 194.211 96.7488V99.114C192.649 99.114 191.203 98.6177 190.022 97.7741V103.906C190.022 106.974 187.533 109.46 184.465 109.46C183.32 109.46 182.255 109.114 181.371 108.521C182.38 109.552 183.787 110.192 185.344 110.192C188.413 110.192 190.901 107.705 190.901 104.637V98.5056H190.901ZM191.987 95.4741C191.383 94.8152 190.987 93.9636 190.901 93.0222V92.6357H190.068C190.277 93.8323 190.993 94.8545 191.987 95.4741ZM183.312 106.167C182.975 105.725 182.793 105.184 182.794 104.629C182.794 103.226 183.932 102.088 185.336 102.088C185.597 102.088 185.857 102.128 186.107 102.207V99.1352C185.815 99.0953 185.521 99.0783 185.227 99.0846V101.476C184.978 101.397 184.717 101.356 184.456 101.357C183.052 101.357 181.914 102.494 181.914 103.897C181.914 104.889 182.483 105.748 183.312 106.167Z" fill="#FF004F"/>
<path d="M190.022 97.774C191.203 98.6176 192.65 99.1139 194.212 99.1139V96.7487C193.34 96.5631 192.568 96.1076 191.987 95.4741C190.994 94.8545 190.278 93.8322 190.068 92.6357H187.878V104.637C187.873 106.036 186.737 107.169 185.336 107.169C184.511 107.169 183.777 106.776 183.313 106.167C182.483 105.748 181.915 104.889 181.915 103.897C181.915 102.494 183.052 101.357 184.456 101.357C184.725 101.357 184.985 101.399 185.228 101.476V99.0847C182.213 99.1469 179.788 101.609 179.788 104.637C179.788 106.149 180.392 107.519 181.372 108.521C182.256 109.114 183.32 109.46 184.465 109.46C187.534 109.46 190.022 106.973 190.022 103.906L190.022 97.774Z" fill="black"/>
<path d="M194.212 96.7487V96.1093C193.425 96.1105 192.655 95.8904 191.987 95.4742C192.578 96.1204 193.356 96.566 194.212 96.7488M190.068 92.6357C190.048 92.5214 190.033 92.4063 190.022 92.2908V91.9043H186.998V103.906C186.993 105.305 185.857 106.438 184.456 106.438C184.059 106.438 183.667 106.346 183.313 106.167C183.777 106.776 184.511 107.169 185.336 107.169C186.737 107.169 187.873 106.037 187.878 104.637V92.6358L190.068 92.6357ZM185.228 99.0846V98.4038C184.975 98.3693 184.72 98.3521 184.465 98.3521C181.396 98.3521 178.908 100.839 178.908 103.906C178.908 105.829 179.886 107.524 181.372 108.521C180.392 107.519 179.788 106.149 179.788 104.637C179.788 101.609 182.213 99.1469 185.228 99.0846Z" fill="#00F2EA"/>
</g>
<path d="M169.594 134.312V133.375H176.273V134.312H173.449V142H172.418V134.312H169.594ZM177.023 142V135.812H178.008V142H177.023ZM177.516 134.594C177.332 134.594 177.176 134.529 177.047 134.4C176.918 134.271 176.855 134.117 176.859 133.938C176.855 133.754 176.918 133.6 177.047 133.475C177.176 133.346 177.332 133.281 177.516 133.281C177.695 133.281 177.848 133.346 177.973 133.475C178.102 133.6 178.168 133.754 178.172 133.938C178.168 134.117 178.102 134.271 177.973 134.4C177.848 134.529 177.695 134.594 177.516 134.594ZM180.246 139.773L180.223 138.543H180.434L183.258 135.812H184.488L181.477 138.742H181.383L180.246 139.773ZM179.32 142V133.375H180.305V142H179.32ZM183.422 142L180.902 138.965L181.605 138.273L184.688 142H183.422ZM190.77 142.047C190.504 142.047 190.246 141.996 189.996 141.895C189.746 141.793 189.541 141.633 189.381 141.414C189.221 141.191 189.141 140.902 189.141 140.547V134.312H190.125V140.395C190.125 140.633 190.16 140.807 190.23 140.916C190.301 141.021 190.393 141.088 190.506 141.115C190.619 141.143 190.738 141.156 190.863 141.156C190.934 141.156 191 141.152 191.062 141.145C191.129 141.137 191.18 141.129 191.215 141.121L191.379 141.977C191.309 141.992 191.223 142.008 191.121 142.023C191.023 142.039 190.906 142.047 190.77 142.047ZM188.238 136.656V135.812H191.32V136.656H188.238ZM194.777 142.094C194.207 142.094 193.701 141.959 193.26 141.689C192.818 141.416 192.473 141.041 192.223 140.564C191.973 140.084 191.848 139.535 191.848 138.918C191.848 138.293 191.973 137.74 192.223 137.26C192.473 136.779 192.818 136.402 193.26 136.129C193.701 135.855 194.207 135.719 194.777 135.719C195.352 135.719 195.857 135.855 196.295 136.129C196.736 136.402 197.082 136.779 197.332 137.26C197.582 137.74 197.707 138.293 197.707 138.918C197.707 139.535 197.582 140.084 197.332 140.564C197.086 141.041 196.742 141.416 196.301 141.689C195.859 141.959 195.352 142.094 194.777 142.094ZM194.777 141.191C195.152 141.191 195.484 141.096 195.773 140.904C196.066 140.709 196.295 140.441 196.459 140.102C196.627 139.758 196.711 139.363 196.711 138.918C196.711 138.465 196.627 138.066 196.459 137.723C196.295 137.375 196.068 137.104 195.779 136.908C195.49 136.709 195.156 136.609 194.777 136.609C194.398 136.609 194.062 136.709 193.77 136.908C193.48 137.104 193.254 137.375 193.09 137.723C192.926 138.066 192.844 138.465 192.844 138.918C192.848 139.363 192.932 139.758 193.096 140.102C193.26 140.441 193.486 140.709 193.775 140.904C194.068 141.096 194.402 141.191 194.777 141.191ZM199.664 139.773L199.641 138.543H199.852L202.676 135.812H203.906L200.895 138.742H200.801L199.664 139.773ZM198.738 142V133.375H199.723V142H198.738ZM202.84 142L200.32 138.965L201.023 138.273L204.105 142H202.84Z" fill="#1A1B25"/>
<rect x="223" y="76" width="48" height="48" rx="24" fill="#F6F8FA"/>
<path d="M251.739 92.5527L247.576 97.3119L243.976 92.5527H238.76L244.991 100.699L239.086 107.449H241.614L246.171 102.24L250.155 107.449H255.24L248.745 98.8619L254.266 92.5527H251.739ZM250.852 105.936L241.711 93.9852H243.214L252.252 105.935L250.852 105.936Z" fill="black"/>
<path d="M243.023 142L246.059 137.535L243.211 133.375H244.441L246.691 136.715L248.941 133.375H250.172L247.324 137.535L250.359 142H249.129L246.691 138.367L244.254 142H243.023Z" fill="#1A1B25"/>
<rect x="283" y="76" width="48" height="48" rx="24" fill="#F6F8FA"/>
<path d="M311 110H304C300.686 110 298 107.314 298 104V95M309.5 90.1319V95.5C309.5 96.6046 310.395 97.5 311.5 97.5H315.937M309.5 90.1319C309.218 90.0453 308.922 90 308.62 90H304C302.343 90 301 91.3431 301 93V104C301 105.657 302.343 107 304 107H313C314.657 107 316 105.657 316 104V98.1098C316 97.9036 315.979 97.6993 315.937 97.5M309.5 90.1319C310.038 90.2969 310.524 90.6115 310.898 91.0476L315.278 96.1574C315.61 96.5446 315.835 97.0072 315.937 97.5" stroke="#121A26" stroke-width="1.5" stroke-linecap="round"/>
<path d="M297.348 142.141C296.527 142.141 295.82 141.961 295.227 141.602C294.633 141.238 294.176 140.723 293.855 140.055C293.535 139.387 293.375 138.598 293.375 137.688C293.375 136.773 293.539 135.984 293.867 135.32C294.195 134.652 294.656 134.139 295.25 133.779C295.848 133.416 296.547 133.234 297.348 133.234C297.801 133.234 298.23 133.309 298.637 133.457C299.043 133.605 299.406 133.82 299.727 134.102C300.047 134.383 300.311 134.723 300.518 135.121C300.725 135.52 300.855 135.969 300.91 136.469H299.844C299.785 136.125 299.682 135.814 299.533 135.537C299.385 135.256 299.199 135.016 298.977 134.816C298.754 134.617 298.504 134.465 298.227 134.359C297.953 134.25 297.66 134.195 297.348 134.195C296.738 134.195 296.215 134.338 295.777 134.623C295.344 134.908 295.01 135.312 294.775 135.836C294.545 136.359 294.43 136.977 294.43 137.688C294.43 138.398 294.541 139.016 294.764 139.539C294.99 140.062 295.32 140.467 295.754 140.752C296.188 141.037 296.719 141.18 297.348 141.18C297.672 141.18 297.977 141.125 298.262 141.016C298.551 140.902 298.809 140.744 299.035 140.541C299.262 140.334 299.445 140.092 299.586 139.814C299.73 139.537 299.816 139.234 299.844 138.906H300.91C300.871 139.379 300.756 139.812 300.564 140.207C300.377 140.602 300.125 140.943 299.809 141.232C299.496 141.521 299.131 141.746 298.713 141.906C298.295 142.062 297.84 142.141 297.348 142.141ZM304.59 142.094C304.02 142.094 303.514 141.959 303.072 141.689C302.631 141.416 302.285 141.041 302.035 140.564C301.785 140.084 301.66 139.535 301.66 138.918C301.66 138.293 301.785 137.74 302.035 137.26C302.285 136.779 302.631 136.402 303.072 136.129C303.514 135.855 304.02 135.719 304.59 135.719C305.164 135.719 305.67 135.855 306.107 136.129C306.549 136.402 306.895 136.779 307.145 137.26C307.395 137.74 307.52 138.293 307.52 138.918C307.52 139.535 307.395 140.084 307.145 140.564C306.898 141.041 306.555 141.416 306.113 141.689C305.672 141.959 305.164 142.094 304.59 142.094ZM304.59 141.191C304.965 141.191 305.297 141.096 305.586 140.904C305.879 140.709 306.107 140.441 306.271 140.102C306.439 139.758 306.523 139.363 306.523 138.918C306.523 138.465 306.439 138.066 306.271 137.723C306.107 137.375 305.881 137.104 305.592 136.908C305.303 136.709 304.969 136.609 304.59 136.609C304.211 136.609 303.875 136.709 303.582 136.908C303.293 137.104 303.066 137.375 302.902 137.723C302.738 138.066 302.656 138.465 302.656 138.918C302.66 139.363 302.744 139.758 302.908 140.102C303.072 140.441 303.299 140.709 303.588 140.904C303.881 141.096 304.215 141.191 304.59 141.191ZM308.551 144.438V135.812H309.535V136.75H309.559C309.781 136.391 310.059 136.129 310.391 135.965C310.723 135.801 311.09 135.719 311.492 135.719C312.031 135.719 312.5 135.854 312.898 136.123C313.297 136.389 313.605 136.76 313.824 137.236C314.043 137.713 314.152 138.27 314.152 138.906C314.152 139.543 314.043 140.102 313.824 140.582C313.605 141.059 313.297 141.43 312.898 141.695C312.5 141.961 312.031 142.094 311.492 142.094C311.09 142.094 310.717 142.012 310.373 141.848C310.029 141.684 309.758 141.43 309.559 141.086H309.535V144.438H308.551ZM309.465 138.906C309.465 139.371 309.541 139.777 309.693 140.125C309.846 140.469 310.062 140.734 310.344 140.922C310.625 141.109 310.957 141.203 311.34 141.203C311.699 141.203 312.016 141.117 312.289 140.945C312.562 140.773 312.777 140.518 312.934 140.178C313.09 139.834 313.168 139.41 313.168 138.906C313.168 138.398 313.09 137.975 312.934 137.635C312.777 137.291 312.562 137.033 312.289 136.861C312.016 136.686 311.699 136.598 311.34 136.598C310.957 136.598 310.625 136.693 310.344 136.885C310.062 137.072 309.846 137.34 309.693 137.688C309.541 138.031 309.465 138.438 309.465 138.906ZM315.102 144.531V143.594H315.711C315.855 143.594 315.971 143.578 316.057 143.547C316.146 143.52 316.221 143.469 316.279 143.395C316.338 143.324 316.391 143.227 316.438 143.102C316.438 143.102 316.459 143.045 316.502 142.932C316.545 142.822 316.594 142.695 316.648 142.551C316.703 142.406 316.752 142.277 316.795 142.164C316.838 142.055 316.859 142 316.859 142L314.469 135.812H315.547L317.375 140.688H317.398L319.203 135.812H320.258L317.305 143.477C317.215 143.707 317.1 143.9 316.959 144.057C316.822 144.213 316.65 144.33 316.443 144.408C316.24 144.49 315.996 144.531 315.711 144.531H315.102Z" fill="#1A1B25"/>
</g>
<defs>
<filter id="filter0_d_3276_10941" x="0" y="0" width="367" height="183" filterUnits="userSpaceOnUse" color-interpolation-filters="sRGB">
<feFlood flood-opacity="0" result="BackgroundImageFix"/>
<feColorMatrix in="SourceAlpha" type="matrix" values="0 0 0 0 0 0 0 0 0 0 0 0 0 0 0 0 0 0 127 0" result="hardAlpha"/>
<feMorphology radius="12" operator="erode" in="SourceAlpha" result="effect1_dropShadow_3276_10941"/>
<feOffset/>
<feGaussianBlur stdDeviation="16"/>
<feComposite in2="hardAlpha" operator="out"/>
<feColorMatrix type="matrix" values="0 0 0 0 0.0285 0 0 0 0 0.1257 0 0 0 0 0.2715 0 0 0 0.09 0"/>
<feBlend mode="normal" in2="BackgroundImageFix" result="effect1_dropShadow_3276_10941"/>
<feBlend mode="normal" in="SourceGraphic" in2="effect1_dropShadow_3276_10941" result="shape"/>
</filter>
<radialGradient id="paint0_radial_3276_10941" cx="0" cy="0" r="1" gradientUnits="userSpaceOnUse" gradientTransform="translate(120.812 111.54) rotate(-90) scale(19.8215 18.4355)">
<stop stop-color="#FFDD55"/>
<stop offset="0.1" stop-color="#FFDD55"/>
<stop offset="0.5" stop-color="#FF543E"/>
<stop offset="1" stop-color="#C837AB"/>
</radialGradient>
<radialGradient id="paint1_radial_3276_10941" cx="0" cy="0" r="1" gradientUnits="userSpaceOnUse" gradientTransform="translate(112.15 91.4407) rotate(78.681) scale(8.86031 36.5225)">
<stop stop-color="#3771C8"/>
<stop offset="0.128" stop-color="#3771C8"/>
<stop offset="1" stop-color="#6600FF" stop-opacity="0"/>
</radialGradient>
<clipPath id="clip0_3276_10941">
<rect width="20" height="20" fill="white" transform="translate(52 90)"/>
</clipPath>
<clipPath id="clip1_3276_10941">
<rect width="20" height="20" fill="white" transform="translate(115.5 90)"/>
</clipPath>
<clipPath id="clip2_3276_10941">
<rect width="20" height="20" fill="white" transform="translate(177 90)"/>
</clipPath>
</defs>
</svg>
