<svg width="375" height="338" viewBox="0 0 375 338" fill="none" xmlns="http://www.w3.org/2000/svg">
<path d="M24.6973 17.5L24.6973 7.4375H26.2422L26.2422 16.1533H30.7744V17.5H24.6973ZM31.875 17.5L31.875 10.2812H33.3379V17.5H31.875ZM32.6133 9.0166C32.3581 9.0166 32.1416 8.93001 31.9639 8.75684C31.7907 8.58366 31.7064 8.3763 31.7109 8.13477C31.7064 7.88411 31.7907 7.67448 31.9639 7.50586C32.1416 7.33268 32.3581 7.24609 32.6133 7.24609C32.8594 7.24609 33.069 7.33268 33.2422 7.50586C33.4199 7.67448 33.5111 7.88411 33.5156 8.13477C33.5111 8.3763 33.4199 8.58366 33.2422 8.75684C33.069 8.93001 32.8594 9.0166 32.6133 9.0166ZM36.2021 13.3301V17.5H34.7324V10.2812H36.1611V11.498H36.1885C36.348 11.1198 36.6077 10.8053 36.9678 10.5547C37.3278 10.2995 37.7904 10.1719 38.3555 10.1719C38.8568 10.1719 39.3102 10.279 39.7158 10.4932C40.126 10.7074 40.4518 11.0264 40.6934 11.4502C40.9349 11.8695 41.0557 12.3913 41.0557 13.0156V17.5L39.5928 17.5V13.1934C39.5928 12.6191 39.4424 12.1839 39.1416 11.8877C38.8454 11.5915 38.4443 11.4434 37.9385 11.4434C37.6149 11.4434 37.321 11.5094 37.0566 11.6416C36.7969 11.7738 36.5895 11.9788 36.4346 12.2568C36.2796 12.5348 36.2021 12.8926 36.2021 13.3301ZM43.8105 15.0937L43.79 13.3027H44.0498L47.0508 10.2812H48.8145L45.3965 13.7812H45.1504L43.8105 15.0937ZM42.457 17.5V7.4375L43.9199 7.4375V17.5H42.457ZM47.2148 17.5L44.5215 14.1094L45.5332 13.0771L49.0195 17.5H47.2148ZM52.6152 17.6094C51.9225 17.6094 51.321 17.4544 50.8105 17.1445C50.3047 16.8301 49.9105 16.3949 49.6279 15.8389C49.3499 15.2829 49.2109 14.638 49.2109 13.9043C49.2109 13.1706 49.3477 12.5234 49.6211 11.9629C49.8991 11.4023 50.291 10.9648 50.7969 10.6504C51.3027 10.3314 51.8975 10.1719 52.5811 10.1719C53.2601 10.1719 53.8434 10.3291 54.3311 10.6436C54.8232 10.958 55.1992 11.3955 55.459 11.9561C55.7188 12.5166 55.8486 13.1637 55.8486 13.8975V14.2734L49.874 14.2734V13.2002L54.4199 13.2002C54.4108 12.8356 54.3242 12.5166 54.1602 12.2432C53.9961 11.9697 53.7751 11.7555 53.4971 11.6006C53.2236 11.4456 52.9137 11.3682 52.5674 11.3682C52.18 11.3682 51.8451 11.4616 51.5625 11.6484C51.2799 11.8353 51.0635 12.0814 50.9131 12.3867C50.7627 12.6875 50.6875 13.0088 50.6875 13.3506V14.2598C50.6829 14.6517 50.7581 15.0117 50.9131 15.3398C51.068 15.6634 51.2891 15.9232 51.5762 16.1191C51.8678 16.3105 52.2165 16.4062 52.6221 16.4062C52.8955 16.4062 53.1507 16.3607 53.3877 16.2695C53.6247 16.1738 53.8275 16.0417 53.9961 15.873C54.1647 15.7044 54.2832 15.5085 54.3516 15.2852H55.7598C55.6686 15.75 55.4772 16.1579 55.1855 16.5088C54.8984 16.8551 54.5339 17.1263 54.0918 17.3223C53.6497 17.5137 53.1576 17.6094 52.6152 17.6094ZM59.6904 17.6094C59.0889 17.6094 58.5579 17.459 58.0977 17.1582C57.6419 16.8529 57.2865 16.4222 57.0312 15.8662C56.776 15.3057 56.6484 14.6471 56.6484 13.8906C56.6484 13.1204 56.776 12.4574 57.0312 11.9014C57.291 11.3454 57.6488 10.9193 58.1045 10.623C58.5648 10.3223 59.0911 10.1719 59.6836 10.1719C60.1667 10.1719 60.6019 10.2744 60.9893 10.4795C61.3766 10.68 61.6774 10.9808 61.8916 11.3818H61.9189V7.4375H63.3887V17.5H61.9258V16.3926H61.8984C61.6615 16.7982 61.3538 17.1035 60.9756 17.3086C60.5973 17.5091 60.1689 17.6094 59.6904 17.6094ZM60.0391 16.3721C60.4401 16.3721 60.7865 16.2718 61.0781 16.0713C61.3743 15.8662 61.6022 15.5768 61.7617 15.2031C61.9212 14.8294 62.001 14.3919 62.001 13.8906C62.001 13.3848 61.9212 12.9473 61.7617 12.5781C61.6022 12.209 61.3743 11.9242 61.0781 11.7236C60.7865 11.5186 60.4401 11.416 60.0391 11.416C59.6608 11.416 59.3258 11.5094 59.0342 11.6963C58.7471 11.8831 58.5215 12.1611 58.3574 12.5303C58.1979 12.8949 58.1182 13.3483 58.1182 13.8906C58.1182 14.4284 58.1979 14.8818 58.3574 15.251C58.5215 15.6201 58.7471 15.9004 59.0342 16.0918C59.3258 16.2786 59.6608 16.3721 60.0391 16.3721ZM67.8936 17.5L71.5234 7.4375H73.4238L77.0605 17.5H75.3721L72.4736 8.97559H72.4463L69.5068 17.5H67.8936ZM69.8623 14.7109V13.4395L75.085 13.4395V14.7109L69.8623 14.7109ZM80.499 17.6094C79.8337 17.6094 79.2458 17.4521 78.7354 17.1377C78.2295 16.8232 77.8353 16.3857 77.5527 15.8252C77.2702 15.2646 77.1289 14.6243 77.1289 13.9043C77.1289 13.1706 77.2679 12.5257 77.5459 11.9697C77.8285 11.4092 78.2204 10.9694 78.7217 10.6504C79.2275 10.3314 79.8132 10.1719 80.4785 10.1719C81.1257 10.1719 81.6748 10.3063 82.126 10.5752C82.5771 10.8395 82.9235 11.1745 83.165 11.5801C83.4066 11.9811 83.5365 12.389 83.5547 12.8037H82.1328C82.0918 12.5622 82.0029 12.3366 81.8662 12.127C81.734 11.9128 81.5518 11.7396 81.3193 11.6074C81.0915 11.4753 80.8135 11.4092 80.4854 11.4092C80.1117 11.4092 79.7835 11.514 79.501 11.7236C79.2184 11.9333 78.9974 12.2249 78.8379 12.5986C78.6829 12.9678 78.6055 13.403 78.6055 13.9043C78.6055 14.3919 78.6852 14.8203 78.8447 15.1895C79.0088 15.5586 79.2321 15.8457 79.5146 16.0508C79.7972 16.2559 80.123 16.3584 80.4922 16.3584C80.7839 16.3584 81.0482 16.2992 81.2852 16.1807C81.5221 16.0622 81.7113 15.8981 81.8525 15.6885C81.9984 15.4743 82.0758 15.235 82.085 14.9707H83.5547C83.5273 15.4264 83.3929 15.8548 83.1514 16.2559C82.9098 16.6569 82.5658 16.9827 82.1191 17.2334C81.6771 17.484 81.137 17.6094 80.499 17.6094ZM87.7178 17.6094C87.0524 17.6094 86.4645 17.4521 85.9541 17.1377C85.4482 16.8232 85.054 16.3857 84.7715 15.8252C84.4889 15.2646 84.3477 14.6243 84.3477 13.9043C84.3477 13.1706 84.4867 12.5257 84.7646 11.9697C85.0472 11.4092 85.4391 10.9694 85.9404 10.6504C86.4463 10.3314 87.0319 10.1719 87.6973 10.1719C88.3444 10.1719 88.8936 10.3063 89.3447 10.5752C89.7959 10.8395 90.1423 11.1745 90.3838 11.5801C90.6253 11.9811 90.7552 12.389 90.7734 12.8037H89.3516C89.3105 12.5622 89.2217 12.3366 89.085 12.127C88.9528 11.9128 88.7705 11.7396 88.5381 11.6074C88.3102 11.4753 88.0322 11.4092 87.7041 11.4092C87.3304 11.4092 87.0023 11.514 86.7197 11.7236C86.4372 11.9333 86.2161 12.2249 86.0566 12.5986C85.9017 12.9678 85.8242 13.403 85.8242 13.9043C85.8242 14.3919 85.904 14.8203 86.0635 15.1895C86.2275 15.5586 86.4508 15.8457 86.7334 16.0508C87.016 16.2559 87.3418 16.3584 87.7109 16.3584C88.0026 16.3584 88.2669 16.2992 88.5039 16.1807C88.7409 16.0622 88.93 15.8981 89.0713 15.6885C89.2171 15.4743 89.2946 15.235 89.3037 14.9707H90.7734C90.7461 15.4264 90.6117 15.8548 90.3701 16.2559C90.1286 16.6569 89.7845 16.9827 89.3379 17.2334C88.8958 17.484 88.3558 17.6094 87.7178 17.6094ZM95.0527 17.6094C94.3646 17.6094 93.7585 17.4544 93.2344 17.1445C92.7103 16.8301 92.3001 16.3949 92.0039 15.8389C91.7122 15.2783 91.5664 14.6335 91.5664 13.9043C91.5664 13.166 91.7122 12.5166 92.0039 11.9561C92.3001 11.3955 92.7103 10.958 93.2344 10.6436C93.7585 10.3291 94.3646 10.1719 95.0527 10.1719C95.7454 10.1719 96.3516 10.3291 96.8711 10.6436C97.3952 10.958 97.8031 11.3955 98.0947 11.9561C98.391 12.5166 98.5391 13.166 98.5391 13.9043C98.5391 14.6335 98.3932 15.2783 98.1016 15.8389C97.8099 16.3949 97.402 16.8301 96.8779 17.1445C96.3538 17.4544 95.7454 17.6094 95.0527 17.6094ZM95.0527 16.3652C95.4447 16.3652 95.791 16.2627 96.0918 16.0576C96.3926 15.8525 96.6296 15.5654 96.8027 15.1963C96.9759 14.8226 97.0625 14.3919 97.0625 13.9043C97.0625 13.403 96.9759 12.9678 96.8027 12.5986C96.6296 12.2249 96.3926 11.9333 96.0918 11.7236C95.7956 11.5094 95.4492 11.4023 95.0527 11.4023C94.6562 11.4023 94.3076 11.5072 94.0068 11.7168C93.7061 11.9264 93.4691 12.2181 93.2959 12.5918C93.1273 12.9655 93.043 13.403 93.043 13.9043C93.0475 14.3919 93.1341 14.8226 93.3027 15.1963C93.4759 15.5654 93.7129 15.8525 94.0137 16.0576C94.3145 16.2627 94.6608 16.3652 95.0527 16.3652ZM104.493 14.4512V10.2812H105.956V17.5H104.534V16.2832H104.507C104.347 16.6569 104.085 16.9714 103.721 17.2266C103.361 17.4818 102.898 17.6094 102.333 17.6094C101.841 17.6094 101.39 17.5023 100.979 17.2881C100.569 17.0739 100.241 16.7549 99.9951 16.3311C99.7536 15.9072 99.6328 15.3854 99.6328 14.7656V10.2812H101.103V14.5879C101.103 15.1621 101.253 15.5973 101.554 15.8936C101.854 16.1898 102.253 16.3379 102.75 16.3379C103.078 16.3379 103.372 16.2718 103.632 16.1396C103.896 16.0075 104.106 15.8024 104.261 15.5244C104.416 15.2419 104.493 14.8841 104.493 14.4512ZM108.827 13.3301V17.5H107.357V10.2812H108.786V11.498H108.813C108.973 11.1198 109.233 10.8053 109.593 10.5547C109.953 10.2995 110.415 10.1719 110.98 10.1719C111.482 10.1719 111.935 10.279 112.341 10.4932C112.751 10.7074 113.077 11.0264 113.318 11.4502C113.56 11.8695 113.681 12.3913 113.681 13.0156V17.5H112.218V13.1934C112.218 12.6191 112.067 12.1839 111.767 11.8877C111.47 11.5915 111.069 11.4434 110.563 11.4434C110.24 11.4434 109.946 11.5094 109.682 11.6416C109.422 11.7738 109.215 11.9788 109.06 12.2568C108.905 12.5348 108.827 12.8926 108.827 13.3301ZM117.591 17.541C117.217 17.541 116.873 17.4772 116.559 17.3496C116.249 17.222 115.998 17.0215 115.807 16.748C115.62 16.4746 115.526 16.1191 115.526 15.6816V8.51074H116.996V15.4424C116.996 15.6976 117.033 15.8867 117.105 16.0098C117.183 16.1328 117.285 16.2126 117.413 16.249C117.541 16.2809 117.68 16.2969 117.83 16.2969C117.921 16.2969 118.008 16.2946 118.09 16.29C118.172 16.2809 118.236 16.2718 118.281 16.2627L118.432 17.4795C118.345 17.4932 118.231 17.5068 118.09 17.5205C117.949 17.5342 117.782 17.541 117.591 17.541ZM114.487 11.4844V10.2812L118.377 10.2812V11.4844L114.487 11.4844Z" fill="#1A1B25"/>
<rect x="24" y="37" width="48" height="48" rx="24" fill="#F6F8FA"/>
<g clip-path="url(#clip0_3265_9271)">
<path d="M58 61C58 55.4772 53.5228 51 48 51C42.4772 51 38 55.4772 38 61C38 65.9912 41.6569 70.1284 46.4375 70.8785V63.8906H43.8984V61H46.4375V58.7969C46.4375 56.2906 47.9305 54.9062 50.2147 54.9062C51.3088 54.9062 52.4531 55.1016 52.4531 55.1016V57.5625H51.1922C49.9499 57.5625 49.5625 58.3334 49.5625 59.1242V61H52.3359L51.8926 63.8906H49.5625V70.8785C54.3431 70.1284 58 65.9913 58 61Z" fill="#1877F2"/>
<path d="M51.8926 63.8906L52.3359 61H49.5625V59.1242C49.5625 58.3333 49.9499 57.5625 51.1922 57.5625H52.4531V55.1016C52.4531 55.1016 51.3088 54.9062 50.2146 54.9062C47.9305 54.9062 46.4375 56.2906 46.4375 58.7969V61H43.8984V63.8906H46.4375V70.8785C46.9544 70.9595 47.4768 71.0001 48 71C48.5232 71.0001 49.0456 70.9595 49.5625 70.8785V63.8906H51.8926Z" fill="white"/>
</g>
<g clip-path="url(#clip1_3265_9271)">
<path d="M88.7969 57.5V46H96.0938V47.5469H90.5469V51H95.4766V52.5234H90.5469V57.5H88.7969ZM99.9219 57.6172C99.375 57.6172 98.8854 57.526 98.4531 57.3438C98.026 57.1562 97.6875 56.8802 97.4375 56.5156C97.1875 56.1458 97.0625 55.6875 97.0625 55.1406C97.0625 54.6719 97.151 54.2865 97.3281 53.9844C97.5104 53.6823 97.7552 53.4427 98.0625 53.2656C98.3698 53.0885 98.7188 52.9557 99.1094 52.8672C99.5 52.7734 99.9036 52.7031 100.32 52.6562C100.841 52.5885 101.25 52.5365 101.547 52.5C101.849 52.4583 102.062 52.3958 102.188 52.3125C102.318 52.224 102.383 52.0807 102.383 51.8828V51.8438C102.383 51.4427 102.237 51.1198 101.945 50.875C101.659 50.625 101.255 50.5 100.734 50.5C100.224 50.5 99.8073 50.6224 99.4844 50.8672C99.1667 51.112 98.9896 51.4219 98.9531 51.7969H97.2656C97.2969 51.2865 97.4557 50.8307 97.7422 50.4297C98.0339 50.0286 98.4349 49.7109 98.9453 49.4766C99.4557 49.2422 100.057 49.125 100.75 49.125C101.427 49.125 102.013 49.2396 102.508 49.4688C103.003 49.6979 103.383 50.0156 103.648 50.4219C103.919 50.8281 104.055 51.3021 104.055 51.8438V57.5H102.422V56.3281H102.391C102.271 56.5521 102.109 56.763 101.906 56.9609C101.703 57.1589 101.44 57.3177 101.117 57.4375C100.794 57.5573 100.396 57.6172 99.9219 57.6172ZM100.281 56.2812C100.755 56.2812 101.148 56.1979 101.461 56.0312C101.779 55.8594 102.013 55.6328 102.164 55.3516C102.315 55.0651 102.391 54.7526 102.391 54.4141V53.4609C102.281 53.5443 102.036 53.6224 101.656 53.6953C101.276 53.763 100.867 53.8281 100.43 53.8906C100.133 53.9323 99.8542 54.0026 99.5938 54.1016C99.3385 54.1953 99.1302 54.3281 98.9688 54.5C98.8125 54.6667 98.7344 54.8906 98.7344 55.1719C98.7396 55.5208 98.8802 55.7943 99.1562 55.9922C99.4323 56.1849 99.8073 56.2812 100.281 56.2812ZM109.164 57.625C108.404 57.625 107.732 57.4453 107.148 57.0859C106.57 56.7266 106.12 56.2266 105.797 55.5859C105.474 54.9453 105.312 54.2135 105.312 53.3906C105.312 52.5521 105.471 51.8151 105.789 51.1797C106.112 50.5391 106.56 50.0365 107.133 49.6719C107.711 49.3073 108.38 49.125 109.141 49.125C109.88 49.125 110.508 49.2786 111.023 49.5859C111.539 49.888 111.935 50.2708 112.211 50.7344C112.487 51.1927 112.635 51.6589 112.656 52.1328H111.031C110.984 51.8568 110.883 51.599 110.727 51.3594C110.576 51.1146 110.367 50.9167 110.102 50.7656C109.841 50.6146 109.523 50.5391 109.148 50.5391C108.721 50.5391 108.346 50.6589 108.023 50.8984C107.701 51.138 107.448 51.4714 107.266 51.8984C107.089 52.3203 107 52.8177 107 53.3906C107 53.9479 107.091 54.4375 107.273 54.8594C107.461 55.2812 107.716 55.6094 108.039 55.8438C108.362 56.0781 108.734 56.1953 109.156 56.1953C109.49 56.1953 109.792 56.1276 110.062 55.9922C110.333 55.8568 110.549 55.6693 110.711 55.4297C110.878 55.1849 110.966 54.9115 110.977 54.6094H112.656C112.625 55.1302 112.471 55.6198 112.195 56.0781C111.919 56.5365 111.526 56.9089 111.016 57.1953C110.51 57.4818 109.893 57.625 109.164 57.625ZM117.453 57.625C116.661 57.625 115.974 57.4479 115.391 57.0938C114.812 56.7344 114.362 56.237 114.039 55.6016C113.721 54.9661 113.562 54.2292 113.562 53.3906C113.562 52.5521 113.719 51.8125 114.031 51.1719C114.349 50.5312 114.797 50.0312 115.375 49.6719C115.953 49.3073 116.633 49.125 117.414 49.125C118.19 49.125 118.857 49.3047 119.414 49.6641C119.977 50.0234 120.406 50.5234 120.703 51.1641C121 51.8047 121.148 52.5443 121.148 53.3828V53.8125H114.32V52.5859H119.516C119.505 52.1693 119.406 51.8047 119.219 51.4922C119.031 51.1797 118.779 50.9349 118.461 50.7578C118.148 50.5807 117.794 50.4922 117.398 50.4922C116.956 50.4922 116.573 50.599 116.25 50.8125C115.927 51.026 115.68 51.3073 115.508 51.6562C115.336 52 115.25 52.3672 115.25 52.7578V53.7969C115.245 54.2448 115.331 54.6562 115.508 55.0312C115.685 55.401 115.938 55.6979 116.266 55.9219C116.599 56.1406 116.997 56.25 117.461 56.25C117.773 56.25 118.065 56.1979 118.336 56.0938C118.607 55.9844 118.839 55.8333 119.031 55.6406C119.224 55.4479 119.359 55.224 119.438 54.9688H121.047C120.943 55.5 120.724 55.9661 120.391 56.3672C120.062 56.763 119.646 57.0729 119.141 57.2969C118.635 57.5156 118.073 57.625 117.453 57.625ZM126.633 57.625C126.086 57.625 125.596 57.5104 125.164 57.2812C124.732 57.0469 124.38 56.6979 124.109 56.2344H124.078V57.5H122.406V46H124.086V50.5078H124.117C124.362 50.0495 124.706 49.7057 125.148 49.4766C125.591 49.2422 126.089 49.125 126.641 49.125C127.318 49.125 127.917 49.2969 128.438 49.6406C128.964 49.9792 129.372 50.4661 129.664 51.1016C129.961 51.737 130.109 52.4948 130.109 53.375C130.109 54.2396 129.964 54.9922 129.672 55.6328C129.38 56.2682 128.974 56.7604 128.453 57.1094C127.932 57.4531 127.326 57.625 126.633 57.625ZM126.234 56.2109C126.672 56.2109 127.055 56.1042 127.383 55.8906C127.711 55.6719 127.966 55.3516 128.148 54.9297C128.336 54.5078 128.43 53.9896 128.43 53.375C128.43 52.7552 128.336 52.237 128.148 51.8203C127.966 51.3984 127.711 51.0807 127.383 50.8672C127.055 50.6536 126.672 50.5469 126.234 50.5469C125.776 50.5469 125.378 50.6641 125.039 50.8984C124.706 51.1276 124.448 51.4531 124.266 51.875C124.083 52.2969 123.992 52.7969 123.992 53.375C123.992 53.9479 124.083 54.4479 124.266 54.875C124.448 55.3021 124.706 55.6328 125.039 55.8672C125.378 56.0964 125.776 56.2109 126.234 56.2109ZM135.094 57.625C134.307 57.625 133.615 57.4479 133.016 57.0938C132.417 56.7344 131.948 56.237 131.609 55.6016C131.276 54.9609 131.109 54.224 131.109 53.3906C131.109 52.5469 131.276 51.8047 131.609 51.1641C131.948 50.5234 132.417 50.0234 133.016 49.6641C133.615 49.3047 134.307 49.125 135.094 49.125C135.885 49.125 136.578 49.3047 137.172 49.6641C137.771 50.0234 138.237 50.5234 138.57 51.1641C138.909 51.8047 139.078 52.5469 139.078 53.3906C139.078 54.224 138.911 54.9609 138.578 55.6016C138.245 56.237 137.779 56.7344 137.18 57.0938C136.581 57.4479 135.885 57.625 135.094 57.625ZM135.094 56.2031C135.542 56.2031 135.938 56.0859 136.281 55.8516C136.625 55.6172 136.896 55.2891 137.094 54.8672C137.292 54.4401 137.391 53.9479 137.391 53.3906C137.391 52.8177 137.292 52.3203 137.094 51.8984C136.896 51.4714 136.625 51.138 136.281 50.8984C135.943 50.6536 135.547 50.5312 135.094 50.5312C134.641 50.5312 134.242 50.651 133.898 50.8906C133.555 51.1302 133.284 51.4635 133.086 51.8906C132.893 52.3177 132.797 52.8177 132.797 53.3906C132.802 53.9479 132.901 54.4401 133.094 54.8672C133.292 55.2891 133.562 55.6172 133.906 55.8516C134.25 56.0859 134.646 56.2031 135.094 56.2031ZM144.062 57.625C143.276 57.625 142.583 57.4479 141.984 57.0938C141.385 56.7344 140.917 56.237 140.578 55.6016C140.245 54.9609 140.078 54.224 140.078 53.3906C140.078 52.5469 140.245 51.8047 140.578 51.1641C140.917 50.5234 141.385 50.0234 141.984 49.6641C142.583 49.3047 143.276 49.125 144.062 49.125C144.854 49.125 145.547 49.3047 146.141 49.6641C146.74 50.0234 147.206 50.5234 147.539 51.1641C147.878 51.8047 148.047 52.5469 148.047 53.3906C148.047 54.224 147.88 54.9609 147.547 55.6016C147.214 56.237 146.747 56.7344 146.148 57.0938C145.549 57.4479 144.854 57.625 144.062 57.625ZM144.062 56.2031C144.51 56.2031 144.906 56.0859 145.25 55.8516C145.594 55.6172 145.865 55.2891 146.062 54.8672C146.26 54.4401 146.359 53.9479 146.359 53.3906C146.359 52.8177 146.26 52.3203 146.062 51.8984C145.865 51.4714 145.594 51.138 145.25 50.8984C144.911 50.6536 144.516 50.5312 144.062 50.5312C143.609 50.5312 143.211 50.651 142.867 50.8906C142.523 51.1302 142.253 51.4635 142.055 51.8906C141.862 52.3177 141.766 52.8177 141.766 53.3906C141.771 53.9479 141.87 54.4401 142.062 54.8672C142.26 55.2891 142.531 55.6172 142.875 55.8516C143.219 56.0859 143.615 56.2031 144.062 56.2031ZM150.844 54.75L150.82 52.7031H151.117L154.547 49.25H156.562L152.656 53.25H152.375L150.844 54.75ZM149.297 57.5V46H150.969V57.5H149.297ZM154.734 57.5L151.656 53.625L152.812 52.4453L156.797 57.5H154.734Z" fill="#1A1B25"/>
</g>
<g clip-path="url(#clip2_3265_9271)">
<path d="M92.3477 78.6406C91.5273 78.6406 90.8203 78.4609 90.2266 78.1016C89.6328 77.7383 89.1758 77.2227 88.8555 76.5547C88.5352 75.8867 88.375 75.0977 88.375 74.1875C88.375 73.2734 88.5391 72.4844 88.8672 71.8203C89.1953 71.1523 89.6562 70.6387 90.25 70.2793C90.8477 69.916 91.5469 69.7344 92.3477 69.7344C92.8008 69.7344 93.2305 69.8086 93.6367 69.957C94.043 70.1055 94.4062 70.3203 94.7266 70.6016C95.0469 70.8828 95.3105 71.2227 95.5176 71.6211C95.7246 72.0195 95.8555 72.4688 95.9102 72.9688H94.8438C94.7852 72.625 94.6816 72.3145 94.5332 72.0371C94.3848 71.7559 94.1992 71.5156 93.9766 71.3164C93.7539 71.1172 93.5039 70.9648 93.2266 70.8594C92.9531 70.75 92.6602 70.6953 92.3477 70.6953C91.7383 70.6953 91.2148 70.8379 90.7773 71.123C90.3438 71.4082 90.0098 71.8125 89.7754 72.3359C89.5449 72.8594 89.4297 73.4766 89.4297 74.1875C89.4297 74.8984 89.541 75.5156 89.7637 76.0391C89.9902 76.5625 90.3203 76.9668 90.7539 77.252C91.1875 77.5371 91.7188 77.6797 92.3477 77.6797C92.6719 77.6797 92.9766 77.625 93.2617 77.5156C93.5508 77.4023 93.8086 77.2441 94.0352 77.041C94.2617 76.834 94.4453 76.5918 94.5859 76.3145C94.7305 76.0371 94.8164 75.7344 94.8438 75.4062H95.9102C95.8711 75.8789 95.7559 76.3125 95.5645 76.707C95.377 77.1016 95.125 77.4434 94.8086 77.7324C94.4961 78.0215 94.1309 78.2461 93.7129 78.4062C93.2949 78.5625 92.8398 78.6406 92.3477 78.6406ZM99.5898 78.5938C99.0195 78.5938 98.5137 78.459 98.0723 78.1895C97.6309 77.916 97.2852 77.541 97.0352 77.0645C96.7852 76.584 96.6602 76.0352 96.6602 75.418C96.6602 74.793 96.7852 74.2402 97.0352 73.7598C97.2852 73.2793 97.6309 72.9023 98.0723 72.6289C98.5137 72.3555 99.0195 72.2188 99.5898 72.2188C100.164 72.2188 100.67 72.3555 101.107 72.6289C101.549 72.9023 101.895 73.2793 102.145 73.7598C102.395 74.2402 102.52 74.793 102.52 75.418C102.52 76.0352 102.395 76.584 102.145 77.0645C101.898 77.541 101.555 77.916 101.113 78.1895C100.672 78.459 100.164 78.5938 99.5898 78.5938ZM99.5898 77.6914C99.9648 77.6914 100.297 77.5957 100.586 77.4043C100.879 77.209 101.107 76.9414 101.271 76.6016C101.439 76.2578 101.523 75.8633 101.523 75.418C101.523 74.9648 101.439 74.5664 101.271 74.2227C101.107 73.875 100.881 73.6035 100.592 73.4082C100.303 73.209 99.9688 73.1094 99.5898 73.1094C99.2109 73.1094 98.875 73.209 98.582 73.4082C98.293 73.6035 98.0664 73.875 97.9023 74.2227C97.7383 74.5664 97.6562 74.9648 97.6562 75.418C97.6602 75.8633 97.7441 76.2578 97.9082 76.6016C98.0723 76.9414 98.2988 77.209 98.5879 77.4043C98.8809 77.5957 99.2148 77.6914 99.5898 77.6914ZM104.535 74.8789V78.5H103.551V72.3125H104.512V73.3086H104.535C104.672 73.0078 104.889 72.752 105.186 72.541C105.482 72.3262 105.875 72.2188 106.363 72.2188C106.781 72.2188 107.166 72.3086 107.518 72.4883C107.869 72.6641 108.15 72.9316 108.361 73.291C108.576 73.6504 108.684 74.1055 108.684 74.6562V78.5H107.699V74.7266C107.699 74.1914 107.559 73.7891 107.277 73.5195C107 73.2461 106.629 73.1094 106.164 73.1094C105.863 73.1094 105.59 73.1699 105.344 73.291C105.098 73.4121 104.9 73.6035 104.752 73.8652C104.607 74.123 104.535 74.4609 104.535 74.8789ZM110.98 74.8789V78.5H109.996V72.3125H110.957V73.3086H110.98C111.117 73.0078 111.334 72.752 111.631 72.541C111.928 72.3262 112.32 72.2188 112.809 72.2188C113.227 72.2188 113.611 72.3086 113.963 72.4883C114.314 72.6641 114.596 72.9316 114.807 73.291C115.021 73.6504 115.129 74.1055 115.129 74.6562V78.5H114.145V74.7266C114.145 74.1914 114.004 73.7891 113.723 73.5195C113.445 73.2461 113.074 73.1094 112.609 73.1094C112.309 73.1094 112.035 73.1699 111.789 73.291C111.543 73.4121 111.346 73.6035 111.197 73.8652C111.053 74.123 110.98 74.4609 110.98 74.8789ZM119.008 78.5938C118.434 78.5938 117.934 78.459 117.508 78.1895C117.082 77.916 116.75 77.541 116.512 77.0645C116.277 76.5879 116.16 76.0391 116.16 75.418C116.16 74.793 116.275 74.2402 116.506 73.7598C116.74 73.2793 117.068 72.9023 117.49 72.6289C117.916 72.3555 118.414 72.2188 118.984 72.2188C119.559 72.2188 120.049 72.3555 120.455 72.6289C120.865 72.9023 121.178 73.2793 121.393 73.7598C121.607 74.2402 121.715 74.793 121.715 75.418V75.6875H116.699V74.8438H120.695C120.684 74.5 120.602 74.1992 120.449 73.9414C120.297 73.6797 120.092 73.4766 119.834 73.332C119.576 73.1836 119.285 73.1094 118.961 73.1094C118.59 73.1094 118.271 73.2012 118.006 73.3848C117.74 73.5645 117.537 73.7988 117.396 74.0879C117.26 74.377 117.191 74.6836 117.191 75.0078V75.6523C117.191 76.0234 117.264 76.3633 117.408 76.6719C117.553 76.9805 117.76 77.2285 118.029 77.416C118.303 77.5996 118.629 77.6914 119.008 77.6914C119.266 77.6914 119.504 77.6484 119.723 77.5625C119.945 77.4727 120.135 77.3477 120.291 77.1875C120.451 77.0273 120.562 76.8398 120.625 76.625H121.621C121.543 77.0195 121.381 77.3652 121.135 77.6621C120.893 77.9551 120.588 78.1836 120.221 78.3477C119.854 78.5117 119.449 78.5938 119.008 78.5938ZM125.277 78.5938C124.73 78.5938 124.244 78.459 123.818 78.1895C123.396 77.916 123.064 77.541 122.822 77.0645C122.584 76.584 122.465 76.0352 122.465 75.418C122.465 74.793 122.582 74.2402 122.816 73.7598C123.055 73.2793 123.383 72.9023 123.801 72.6289C124.223 72.3555 124.707 72.2188 125.254 72.2188C125.797 72.2188 126.254 72.334 126.625 72.5645C126.996 72.7949 127.281 73.0762 127.48 73.4082C127.68 73.7402 127.789 74.0625 127.809 74.375H126.801C126.766 74.168 126.686 73.9688 126.561 73.7773C126.439 73.582 126.27 73.4219 126.051 73.2969C125.836 73.1719 125.57 73.1094 125.254 73.1094C124.898 73.1094 124.586 73.209 124.316 73.4082C124.047 73.6035 123.836 73.875 123.684 74.2227C123.535 74.5664 123.461 74.9648 123.461 75.418C123.461 75.8633 123.537 76.2578 123.689 76.6016C123.846 76.9414 124.059 77.209 124.328 77.4043C124.602 77.5957 124.914 77.6914 125.266 77.6914C125.539 77.6914 125.787 77.6367 126.01 77.5273C126.236 77.4141 126.416 77.2617 126.549 77.0703C126.682 76.8789 126.75 76.668 126.754 76.4375H127.809C127.781 76.7891 127.668 77.1309 127.469 77.4629C127.27 77.791 126.986 78.0625 126.619 78.2773C126.252 78.4883 125.805 78.5938 125.277 78.5938ZM130.809 78.5469C130.543 78.5469 130.285 78.4961 130.035 78.3945C129.785 78.293 129.58 78.1328 129.42 77.9141C129.26 77.6914 129.18 77.4023 129.18 77.0469V70.8125H130.164V76.8945C130.164 77.1328 130.199 77.3066 130.27 77.416C130.34 77.5215 130.432 77.5879 130.545 77.6152C130.658 77.6426 130.777 77.6562 130.902 77.6562C130.973 77.6562 131.039 77.6523 131.102 77.6445C131.168 77.6367 131.219 77.6289 131.254 77.6211L131.418 78.4766C131.348 78.4922 131.262 78.5078 131.16 78.5234C131.062 78.5391 130.945 78.5469 130.809 78.5469ZM128.277 73.1562V72.3125H131.359V73.1562H128.277ZM134.734 78.5938C134.16 78.5938 133.66 78.459 133.234 78.1895C132.809 77.916 132.477 77.541 132.238 77.0645C132.004 76.5879 131.887 76.0391 131.887 75.418C131.887 74.793 132.002 74.2402 132.232 73.7598C132.467 73.2793 132.795 72.9023 133.217 72.6289C133.643 72.3555 134.141 72.2188 134.711 72.2188C135.285 72.2188 135.775 72.3555 136.182 72.6289C136.592 72.9023 136.904 73.2793 137.119 73.7598C137.334 74.2402 137.441 74.793 137.441 75.418V75.6875H132.426V74.8438H136.422C136.41 74.5 136.328 74.1992 136.176 73.9414C136.023 73.6797 135.818 73.4766 135.561 73.332C135.303 73.1836 135.012 73.1094 134.688 73.1094C134.316 73.1094 133.998 73.2012 133.732 73.3848C133.467 73.5645 133.264 73.7988 133.123 74.0879C132.986 74.377 132.918 74.6836 132.918 75.0078V75.6523C132.918 76.0234 132.99 76.3633 133.135 76.6719C133.279 76.9805 133.486 77.2285 133.756 77.416C134.029 77.5996 134.355 77.6914 134.734 77.6914C134.992 77.6914 135.23 77.6484 135.449 77.5625C135.672 77.4727 135.861 77.3477 136.018 77.1875C136.178 77.0273 136.289 76.8398 136.352 76.625H137.348C137.27 77.0195 137.107 77.3652 136.861 77.6621C136.619 77.9551 136.314 78.1836 135.947 78.3477C135.58 78.5117 135.176 78.5938 134.734 78.5938ZM140.852 78.5938C140.316 78.5938 139.848 78.4609 139.445 78.1953C139.047 77.9258 138.738 77.5527 138.52 77.0762C138.301 76.5957 138.191 76.0391 138.191 75.4062C138.191 74.7695 138.301 74.2129 138.52 73.7363C138.738 73.2559 139.047 72.8828 139.445 72.6172C139.848 72.3516 140.316 72.2188 140.852 72.2188C141.254 72.2188 141.627 72.3008 141.971 72.4648C142.314 72.625 142.586 72.8789 142.785 73.2266H142.809V69.875H143.793V78.5H142.809V77.5625H142.785C142.562 77.918 142.285 78.1797 141.953 78.3477C141.621 78.5117 141.254 78.5938 140.852 78.5938ZM141.004 77.7148C141.387 77.7148 141.719 77.6211 142 77.4336C142.281 77.2422 142.498 76.9727 142.65 76.625C142.803 76.2773 142.879 75.8711 142.879 75.4062C142.879 74.9375 142.803 74.5312 142.65 74.1875C142.498 73.8438 142.281 73.5781 142 73.3906C141.719 73.2031 141.387 73.1094 141.004 73.1094C140.648 73.1094 140.332 73.1953 140.055 73.3672C139.781 73.5391 139.566 73.7949 139.41 74.1348C139.254 74.4746 139.176 74.8984 139.176 75.4062C139.176 75.9102 139.254 76.334 139.41 76.6777C139.566 77.0215 139.781 77.2812 140.055 77.457C140.332 77.6289 140.648 77.7148 141.004 77.7148Z" fill="#40C4AA"/>
</g>
<path d="M336 55L341.293 60.2929C341.683 60.6834 341.683 61.3166 341.293 61.7071L336 67" stroke="#1A1B25" stroke-width="2" stroke-linecap="round" stroke-linejoin="round"/>
<rect x="24" y="109" width="48" height="48" rx="24" fill="#F6F8FA"/>
<g clip-path="url(#clip3_3265_9271)">
<path d="M53.3125 123H42.6875C40.0987 123 38 125.099 38 127.688V138.312C38 140.901 40.0987 143 42.6875 143H53.3125C55.9013 143 58 140.901 58 138.312V127.688C58 125.099 55.9013 123 53.3125 123Z" fill="url(#paint0_radial_3265_9271)"/>
<path d="M53.3125 123H42.6875C40.0987 123 38 125.099 38 127.688V138.312C38 140.901 40.0987 143 42.6875 143H53.3125C55.9013 143 58 140.901 58 138.312V127.688C58 125.099 55.9013 123 53.3125 123Z" fill="url(#paint1_radial_3265_9271)"/>
<path d="M48.0007 125.188C45.879 125.188 45.6127 125.197 44.7794 125.235C43.9477 125.273 43.3799 125.404 42.8832 125.598C42.3693 125.797 41.9334 126.064 41.4992 126.499C41.0646 126.933 40.7977 127.369 40.5975 127.882C40.4038 128.379 40.272 128.947 40.2345 129.779C40.1973 130.612 40.1875 130.878 40.1875 133C40.1875 135.122 40.1969 135.387 40.2347 136.221C40.273 137.052 40.4046 137.62 40.5977 138.117C40.7973 138.631 41.0643 139.067 41.4987 139.501C41.9328 139.935 42.3687 140.203 42.8822 140.403C43.3793 140.596 43.9471 140.727 44.7787 140.765C45.612 140.803 45.8781 140.813 47.9998 140.813C50.1217 140.813 50.3872 140.803 51.2205 140.765C52.0522 140.727 52.6205 140.596 53.1177 140.403C53.6313 140.203 54.0666 139.935 54.5006 139.501C54.9352 139.067 55.2021 138.631 55.4023 138.117C55.5944 137.62 55.7262 137.052 55.7653 136.221C55.8027 135.387 55.8125 135.122 55.8125 133C55.8125 130.878 55.8027 130.612 55.7653 129.779C55.7262 128.947 55.5944 128.379 55.4023 127.883C55.2021 127.369 54.9352 126.933 54.5006 126.499C54.0661 126.064 53.6315 125.797 53.1172 125.598C52.6191 125.404 52.0511 125.273 51.2194 125.235C50.386 125.197 50.1207 125.188 47.9983 125.188H48.0007ZM47.2998 126.595C47.5079 126.595 47.74 126.595 48.0007 126.595C50.0867 126.595 50.3339 126.603 51.1577 126.64C51.9194 126.675 52.3328 126.802 52.6082 126.909C52.9728 127.051 53.2327 127.22 53.506 127.494C53.7795 127.767 53.9487 128.028 54.0906 128.392C54.1976 128.667 54.325 129.081 54.3597 129.842C54.3971 130.666 54.4052 130.913 54.4052 132.998C54.4052 135.083 54.3971 135.331 54.3597 136.154C54.3248 136.916 54.1976 137.329 54.0906 137.604C53.9491 137.969 53.7795 138.229 53.506 138.502C53.2326 138.775 52.973 138.945 52.6082 139.086C52.3331 139.194 51.9194 139.321 51.1577 139.355C50.3341 139.393 50.0867 139.401 48.0007 139.401C45.9146 139.401 45.6673 139.393 44.8438 139.355C44.0821 139.32 43.6687 139.193 43.393 139.086C43.0285 138.944 42.768 138.775 42.4946 138.502C42.2212 138.228 42.052 137.969 41.91 137.604C41.803 137.329 41.6756 136.915 41.6409 136.154C41.6035 135.33 41.596 135.083 41.596 132.996C41.596 130.91 41.6035 130.664 41.6409 129.84C41.6758 129.079 41.803 128.665 41.91 128.39C42.0516 128.025 42.2212 127.765 42.4947 127.491C42.7682 127.218 43.0285 127.049 43.3931 126.907C43.6685 126.799 44.0821 126.672 44.8438 126.637C45.5645 126.605 45.8438 126.595 47.2998 126.593V126.595ZM52.171 127.893C51.6534 127.893 51.2335 128.312 51.2335 128.83C51.2335 129.347 51.6534 129.767 52.171 129.767C52.6886 129.767 53.1085 129.347 53.1085 128.83C53.1085 128.312 52.6886 127.892 52.171 127.892V127.893ZM48.0007 128.988C45.7851 128.988 43.9887 130.784 43.9887 133C43.9887 135.216 45.7851 137.011 48.0007 137.011C50.2164 137.011 52.0122 135.216 52.0122 133C52.0122 130.784 50.2163 128.988 48.0005 128.988H48.0007ZM48.0007 130.396C49.4389 130.396 50.6049 131.562 50.6049 133C50.6049 134.438 49.4389 135.604 48.0007 135.604C46.5625 135.604 45.3966 134.438 45.3966 133C45.3966 131.562 46.5624 130.396 48.0007 130.396Z" fill="white"/>
</g>
<g clip-path="url(#clip4_3265_9271)">
<path d="M90.5469 118V129.5H88.7969V118H90.5469ZM93.8359 124.734V129.5H92.1562V121.25H93.7891V122.641H93.8203C94.0026 122.208 94.2995 121.849 94.7109 121.562C95.1224 121.271 95.651 121.125 96.2969 121.125C96.8698 121.125 97.388 121.247 97.8516 121.492C98.3203 121.737 98.6927 122.102 98.9688 122.586C99.2448 123.065 99.3828 123.661 99.3828 124.375V129.5H97.7109V124.578C97.7109 123.922 97.5391 123.424 97.1953 123.086C96.8568 122.747 96.3984 122.578 95.8203 122.578C95.4505 122.578 95.1146 122.654 94.8125 122.805C94.5156 122.956 94.2786 123.19 94.1016 123.508C93.9245 123.826 93.8359 124.234 93.8359 124.734ZM107.242 123.797H105.641C105.635 123.396 105.484 123.078 105.188 122.844C104.891 122.609 104.503 122.492 104.023 122.492C103.576 122.492 103.208 122.589 102.922 122.781C102.635 122.969 102.492 123.219 102.492 123.531C102.492 123.802 102.596 124.021 102.805 124.188C103.018 124.354 103.312 124.479 103.688 124.562L105.094 124.875C105.875 125.052 106.458 125.326 106.844 125.695C107.229 126.06 107.422 126.536 107.422 127.125C107.422 127.651 107.279 128.102 106.992 128.477C106.706 128.852 106.31 129.138 105.805 129.336C105.305 129.529 104.74 129.625 104.109 129.625C103.464 129.625 102.888 129.526 102.383 129.328C101.878 129.13 101.471 128.833 101.164 128.438C100.862 128.042 100.69 127.549 100.648 126.961H102.312C102.359 127.404 102.534 127.732 102.836 127.945C103.143 128.159 103.56 128.266 104.086 128.266C104.596 128.266 104.997 128.172 105.289 127.984C105.586 127.797 105.734 127.542 105.734 127.219C105.734 126.938 105.628 126.724 105.414 126.578C105.201 126.427 104.917 126.312 104.562 126.234L103.211 125.938C102.424 125.76 101.831 125.474 101.43 125.078C101.034 124.677 100.836 124.174 100.836 123.57C100.836 123.081 100.969 122.654 101.234 122.289C101.505 121.919 101.878 121.633 102.352 121.43C102.826 121.227 103.378 121.125 104.008 121.125C104.94 121.125 105.706 121.362 106.305 121.836C106.909 122.305 107.221 122.958 107.242 123.797ZM111.57 129.547C111.143 129.547 110.75 129.474 110.391 129.328C110.036 129.182 109.75 128.953 109.531 128.641C109.318 128.328 109.211 127.922 109.211 127.422V119.227H110.891V127.148C110.891 127.44 110.932 127.656 111.016 127.797C111.104 127.938 111.221 128.029 111.367 128.07C111.513 128.107 111.672 128.125 111.844 128.125C111.948 128.125 112.047 128.122 112.141 128.117C112.234 128.107 112.307 128.096 112.359 128.086L112.531 129.477C112.432 129.492 112.302 129.508 112.141 129.523C111.979 129.539 111.789 129.547 111.57 129.547ZM108.023 122.625V121.25H112.469V122.625H108.023ZM116.422 129.617C115.875 129.617 115.385 129.526 114.953 129.344C114.526 129.156 114.188 128.88 113.938 128.516C113.688 128.146 113.562 127.688 113.562 127.141C113.562 126.672 113.651 126.286 113.828 125.984C114.01 125.682 114.255 125.443 114.562 125.266C114.87 125.089 115.219 124.956 115.609 124.867C116 124.773 116.404 124.703 116.82 124.656C117.341 124.589 117.75 124.536 118.047 124.5C118.349 124.458 118.562 124.396 118.688 124.312C118.818 124.224 118.883 124.081 118.883 123.883V123.844C118.883 123.443 118.737 123.12 118.445 122.875C118.159 122.625 117.755 122.5 117.234 122.5C116.724 122.5 116.307 122.622 115.984 122.867C115.667 123.112 115.49 123.422 115.453 123.797H113.766C113.797 123.286 113.956 122.831 114.242 122.43C114.534 122.029 114.935 121.711 115.445 121.477C115.956 121.242 116.557 121.125 117.25 121.125C117.927 121.125 118.513 121.24 119.008 121.469C119.503 121.698 119.883 122.016 120.148 122.422C120.419 122.828 120.555 123.302 120.555 123.844V129.5H118.922V128.328H118.891C118.771 128.552 118.609 128.763 118.406 128.961C118.203 129.159 117.94 129.318 117.617 129.438C117.294 129.557 116.896 129.617 116.422 129.617ZM116.781 128.281C117.255 128.281 117.648 128.198 117.961 128.031C118.279 127.859 118.513 127.633 118.664 127.352C118.815 127.065 118.891 126.753 118.891 126.414V125.461C118.781 125.544 118.536 125.622 118.156 125.695C117.776 125.763 117.367 125.828 116.93 125.891C116.633 125.932 116.354 126.003 116.094 126.102C115.839 126.195 115.63 126.328 115.469 126.5C115.312 126.667 115.234 126.891 115.234 127.172C115.24 127.521 115.38 127.794 115.656 127.992C115.932 128.185 116.307 128.281 116.781 128.281ZM125.812 132.875C125.135 132.875 124.536 132.773 124.016 132.57C123.5 132.372 123.086 132.083 122.773 131.703C122.461 131.323 122.273 130.865 122.211 130.328H123.891C123.995 130.724 124.219 131.021 124.562 131.219C124.911 131.417 125.331 131.516 125.82 131.516C126.477 131.516 126.99 131.344 127.359 131C127.734 130.661 127.922 130.161 127.922 129.5V128.156H127.891C127.661 128.589 127.344 128.93 126.938 129.18C126.536 129.424 126.036 129.547 125.438 129.547C124.729 129.547 124.117 129.378 123.602 129.039C123.091 128.695 122.695 128.211 122.414 127.586C122.138 126.961 122 126.219 122 125.359C122 124.5 122.146 123.753 122.438 123.117C122.734 122.482 123.143 121.992 123.664 121.648C124.19 121.299 124.786 121.125 125.453 121.125C125.953 121.125 126.362 121.208 126.68 121.375C127.003 121.536 127.258 121.732 127.445 121.961C127.638 122.19 127.784 122.401 127.883 122.594H127.938V121.25H129.586V129.469C129.586 130.276 129.417 130.93 129.078 131.43C128.745 131.93 128.292 132.294 127.719 132.523C127.151 132.758 126.516 132.875 125.812 132.875ZM125.797 128.141C126.474 128.141 126.997 127.901 127.367 127.422C127.737 126.938 127.922 126.255 127.922 125.375C127.922 124.776 127.839 124.268 127.672 123.852C127.51 123.435 127.271 123.117 126.953 122.898C126.641 122.674 126.266 122.562 125.828 122.562C125.365 122.562 124.974 122.682 124.656 122.922C124.344 123.156 124.104 123.484 123.938 123.906C123.776 124.328 123.695 124.818 123.695 125.375C123.695 125.932 123.773 126.419 123.93 126.836C124.091 127.247 124.328 127.568 124.641 127.797C124.953 128.026 125.339 128.141 125.797 128.141ZM131.188 129.5V121.25H132.789V122.609H132.836C132.987 122.151 133.227 121.789 133.555 121.523C133.888 121.258 134.307 121.125 134.812 121.125C134.938 121.125 135.052 121.133 135.156 121.148C135.266 121.159 135.354 121.172 135.422 121.188V122.781C135.349 122.755 135.229 122.732 135.062 122.711C134.901 122.685 134.727 122.672 134.539 122.672C134.237 122.672 133.958 122.742 133.703 122.883C133.448 123.018 133.242 123.229 133.086 123.516C132.935 123.802 132.859 124.167 132.859 124.609V129.5H131.188ZM138.969 129.617C138.422 129.617 137.932 129.526 137.5 129.344C137.073 129.156 136.734 128.88 136.484 128.516C136.234 128.146 136.109 127.688 136.109 127.141C136.109 126.672 136.198 126.286 136.375 125.984C136.557 125.682 136.802 125.443 137.109 125.266C137.417 125.089 137.766 124.956 138.156 124.867C138.547 124.773 138.951 124.703 139.367 124.656C139.888 124.589 140.297 124.536 140.594 124.5C140.896 124.458 141.109 124.396 141.234 124.312C141.365 124.224 141.43 124.081 141.43 123.883V123.844C141.43 123.443 141.284 123.12 140.992 122.875C140.706 122.625 140.302 122.5 139.781 122.5C139.271 122.5 138.854 122.622 138.531 122.867C138.214 123.112 138.036 123.422 138 123.797H136.312C136.344 123.286 136.503 122.831 136.789 122.43C137.081 122.029 137.482 121.711 137.992 121.477C138.503 121.242 139.104 121.125 139.797 121.125C140.474 121.125 141.06 121.24 141.555 121.469C142.049 121.698 142.43 122.016 142.695 122.422C142.966 122.828 143.102 123.302 143.102 123.844V129.5H141.469V128.328H141.438C141.318 128.552 141.156 128.763 140.953 128.961C140.75 129.159 140.487 129.318 140.164 129.438C139.841 129.557 139.443 129.617 138.969 129.617ZM139.328 128.281C139.802 128.281 140.195 128.198 140.508 128.031C140.826 127.859 141.06 127.633 141.211 127.352C141.362 127.065 141.438 126.753 141.438 126.414V125.461C141.328 125.544 141.083 125.622 140.703 125.695C140.323 125.763 139.914 125.828 139.477 125.891C139.18 125.932 138.901 126.003 138.641 126.102C138.385 126.195 138.177 126.328 138.016 126.5C137.859 126.667 137.781 126.891 137.781 127.172C137.786 127.521 137.927 127.794 138.203 127.992C138.479 128.185 138.854 128.281 139.328 128.281ZM144.703 129.5V121.25H146.328V122.641H146.359C146.531 122.198 146.833 121.836 147.266 121.555C147.698 121.268 148.201 121.125 148.773 121.125C149.352 121.125 149.846 121.268 150.258 121.555C150.674 121.841 150.964 122.203 151.125 122.641H151.156C151.328 122.214 151.641 121.854 152.094 121.562C152.547 121.271 153.086 121.125 153.711 121.125C154.227 121.125 154.688 121.234 155.094 121.453C155.505 121.672 155.831 122 156.07 122.438C156.31 122.875 156.43 123.424 156.43 124.086V129.5H154.758V124.242C154.758 123.654 154.596 123.229 154.273 122.969C153.956 122.703 153.576 122.57 153.133 122.57C152.586 122.57 152.159 122.74 151.852 123.078C151.544 123.417 151.391 123.846 151.391 124.367V129.5H149.742V124.125C149.742 123.656 149.594 123.281 149.297 123C149.005 122.714 148.625 122.57 148.156 122.57C147.677 122.57 147.26 122.737 146.906 123.07C146.552 123.404 146.375 123.893 146.375 124.539V129.5H144.703Z" fill="#1A1B25"/>
</g>
<g clip-path="url(#clip5_3265_9271)">
<path d="M92.3477 150.641C91.5273 150.641 90.8203 150.461 90.2266 150.102C89.6328 149.738 89.1758 149.223 88.8555 148.555C88.5352 147.887 88.375 147.098 88.375 146.188C88.375 145.273 88.5391 144.484 88.8672 143.82C89.1953 143.152 89.6562 142.639 90.25 142.279C90.8477 141.916 91.5469 141.734 92.3477 141.734C92.8008 141.734 93.2305 141.809 93.6367 141.957C94.043 142.105 94.4062 142.32 94.7266 142.602C95.0469 142.883 95.3105 143.223 95.5176 143.621C95.7246 144.02 95.8555 144.469 95.9102 144.969H94.8438C94.7852 144.625 94.6816 144.314 94.5332 144.037C94.3848 143.756 94.1992 143.516 93.9766 143.316C93.7539 143.117 93.5039 142.965 93.2266 142.859C92.9531 142.75 92.6602 142.695 92.3477 142.695C91.7383 142.695 91.2148 142.838 90.7773 143.123C90.3438 143.408 90.0098 143.812 89.7754 144.336C89.5449 144.859 89.4297 145.477 89.4297 146.188C89.4297 146.898 89.541 147.516 89.7637 148.039C89.9902 148.562 90.3203 148.967 90.7539 149.252C91.1875 149.537 91.7188 149.68 92.3477 149.68C92.6719 149.68 92.9766 149.625 93.2617 149.516C93.5508 149.402 93.8086 149.244 94.0352 149.041C94.2617 148.834 94.4453 148.592 94.5859 148.314C94.7305 148.037 94.8164 147.734 94.8438 147.406H95.9102C95.8711 147.879 95.7559 148.312 95.5645 148.707C95.377 149.102 95.125 149.443 94.8086 149.732C94.4961 150.021 94.1309 150.246 93.7129 150.406C93.2949 150.562 92.8398 150.641 92.3477 150.641ZM99.5898 150.594C99.0195 150.594 98.5137 150.459 98.0723 150.189C97.6309 149.916 97.2852 149.541 97.0352 149.064C96.7852 148.584 96.6602 148.035 96.6602 147.418C96.6602 146.793 96.7852 146.24 97.0352 145.76C97.2852 145.279 97.6309 144.902 98.0723 144.629C98.5137 144.355 99.0195 144.219 99.5898 144.219C100.164 144.219 100.67 144.355 101.107 144.629C101.549 144.902 101.895 145.279 102.145 145.76C102.395 146.24 102.52 146.793 102.52 147.418C102.52 148.035 102.395 148.584 102.145 149.064C101.898 149.541 101.555 149.916 101.113 150.189C100.672 150.459 100.164 150.594 99.5898 150.594ZM99.5898 149.691C99.9648 149.691 100.297 149.596 100.586 149.404C100.879 149.209 101.107 148.941 101.271 148.602C101.439 148.258 101.523 147.863 101.523 147.418C101.523 146.965 101.439 146.566 101.271 146.223C101.107 145.875 100.881 145.604 100.592 145.408C100.303 145.209 99.9688 145.109 99.5898 145.109C99.2109 145.109 98.875 145.209 98.582 145.408C98.293 145.604 98.0664 145.875 97.9023 146.223C97.7383 146.566 97.6562 146.965 97.6562 147.418C97.6602 147.863 97.7441 148.258 97.9082 148.602C98.0723 148.941 98.2988 149.209 98.5879 149.404C98.8809 149.596 99.2148 149.691 99.5898 149.691ZM104.535 146.879V150.5H103.551V144.312H104.512V145.309H104.535C104.672 145.008 104.889 144.752 105.186 144.541C105.482 144.326 105.875 144.219 106.363 144.219C106.781 144.219 107.166 144.309 107.518 144.488C107.869 144.664 108.15 144.932 108.361 145.291C108.576 145.65 108.684 146.105 108.684 146.656V150.5H107.699V146.727C107.699 146.191 107.559 145.789 107.277 145.52C107 145.246 106.629 145.109 106.164 145.109C105.863 145.109 105.59 145.17 105.344 145.291C105.098 145.412 104.9 145.604 104.752 145.865C104.607 146.123 104.535 146.461 104.535 146.879ZM110.98 146.879V150.5H109.996V144.312H110.957V145.309H110.98C111.117 145.008 111.334 144.752 111.631 144.541C111.928 144.326 112.32 144.219 112.809 144.219C113.227 144.219 113.611 144.309 113.963 144.488C114.314 144.664 114.596 144.932 114.807 145.291C115.021 145.65 115.129 146.105 115.129 146.656V150.5H114.145V146.727C114.145 146.191 114.004 145.789 113.723 145.52C113.445 145.246 113.074 145.109 112.609 145.109C112.309 145.109 112.035 145.17 111.789 145.291C111.543 145.412 111.346 145.604 111.197 145.865C111.053 146.123 110.98 146.461 110.98 146.879ZM119.008 150.594C118.434 150.594 117.934 150.459 117.508 150.189C117.082 149.916 116.75 149.541 116.512 149.064C116.277 148.588 116.16 148.039 116.16 147.418C116.16 146.793 116.275 146.24 116.506 145.76C116.74 145.279 117.068 144.902 117.49 144.629C117.916 144.355 118.414 144.219 118.984 144.219C119.559 144.219 120.049 144.355 120.455 144.629C120.865 144.902 121.178 145.279 121.393 145.76C121.607 146.24 121.715 146.793 121.715 147.418V147.688H116.699V146.844H120.695C120.684 146.5 120.602 146.199 120.449 145.941C120.297 145.68 120.092 145.477 119.834 145.332C119.576 145.184 119.285 145.109 118.961 145.109C118.59 145.109 118.271 145.201 118.006 145.385C117.74 145.564 117.537 145.799 117.396 146.088C117.26 146.377 117.191 146.684 117.191 147.008V147.652C117.191 148.023 117.264 148.363 117.408 148.672C117.553 148.98 117.76 149.229 118.029 149.416C118.303 149.6 118.629 149.691 119.008 149.691C119.266 149.691 119.504 149.648 119.723 149.562C119.945 149.473 120.135 149.348 120.291 149.188C120.451 149.027 120.562 148.84 120.625 148.625H121.621C121.543 149.02 121.381 149.365 121.135 149.662C120.893 149.955 120.588 150.184 120.221 150.348C119.854 150.512 119.449 150.594 119.008 150.594ZM125.277 150.594C124.73 150.594 124.244 150.459 123.818 150.189C123.396 149.916 123.064 149.541 122.822 149.064C122.584 148.584 122.465 148.035 122.465 147.418C122.465 146.793 122.582 146.24 122.816 145.76C123.055 145.279 123.383 144.902 123.801 144.629C124.223 144.355 124.707 144.219 125.254 144.219C125.797 144.219 126.254 144.334 126.625 144.564C126.996 144.795 127.281 145.076 127.48 145.408C127.68 145.74 127.789 146.062 127.809 146.375H126.801C126.766 146.168 126.686 145.969 126.561 145.777C126.439 145.582 126.27 145.422 126.051 145.297C125.836 145.172 125.57 145.109 125.254 145.109C124.898 145.109 124.586 145.209 124.316 145.408C124.047 145.604 123.836 145.875 123.684 146.223C123.535 146.566 123.461 146.965 123.461 147.418C123.461 147.863 123.537 148.258 123.689 148.602C123.846 148.941 124.059 149.209 124.328 149.404C124.602 149.596 124.914 149.691 125.266 149.691C125.539 149.691 125.787 149.637 126.01 149.527C126.236 149.414 126.416 149.262 126.549 149.07C126.682 148.879 126.75 148.668 126.754 148.438H127.809C127.781 148.789 127.668 149.131 127.469 149.463C127.27 149.791 126.986 150.062 126.619 150.277C126.252 150.488 125.805 150.594 125.277 150.594ZM130.809 150.547C130.543 150.547 130.285 150.496 130.035 150.395C129.785 150.293 129.58 150.133 129.42 149.914C129.26 149.691 129.18 149.402 129.18 149.047V142.812H130.164V148.895C130.164 149.133 130.199 149.307 130.27 149.416C130.34 149.521 130.432 149.588 130.545 149.615C130.658 149.643 130.777 149.656 130.902 149.656C130.973 149.656 131.039 149.652 131.102 149.645C131.168 149.637 131.219 149.629 131.254 149.621L131.418 150.477C131.348 150.492 131.262 150.508 131.16 150.523C131.062 150.539 130.945 150.547 130.809 150.547ZM128.277 145.156V144.312H131.359V145.156H128.277ZM134.734 150.594C134.16 150.594 133.66 150.459 133.234 150.189C132.809 149.916 132.477 149.541 132.238 149.064C132.004 148.588 131.887 148.039 131.887 147.418C131.887 146.793 132.002 146.24 132.232 145.76C132.467 145.279 132.795 144.902 133.217 144.629C133.643 144.355 134.141 144.219 134.711 144.219C135.285 144.219 135.775 144.355 136.182 144.629C136.592 144.902 136.904 145.279 137.119 145.76C137.334 146.24 137.441 146.793 137.441 147.418V147.688H132.426V146.844H136.422C136.41 146.5 136.328 146.199 136.176 145.941C136.023 145.68 135.818 145.477 135.561 145.332C135.303 145.184 135.012 145.109 134.688 145.109C134.316 145.109 133.998 145.201 133.732 145.385C133.467 145.564 133.264 145.799 133.123 146.088C132.986 146.377 132.918 146.684 132.918 147.008V147.652C132.918 148.023 132.99 148.363 133.135 148.672C133.279 148.98 133.486 149.229 133.756 149.416C134.029 149.6 134.355 149.691 134.734 149.691C134.992 149.691 135.23 149.648 135.449 149.562C135.672 149.473 135.861 149.348 136.018 149.188C136.178 149.027 136.289 148.84 136.352 148.625H137.348C137.27 149.02 137.107 149.365 136.861 149.662C136.619 149.955 136.314 150.184 135.947 150.348C135.58 150.512 135.176 150.594 134.734 150.594ZM140.852 150.594C140.316 150.594 139.848 150.461 139.445 150.195C139.047 149.926 138.738 149.553 138.52 149.076C138.301 148.596 138.191 148.039 138.191 147.406C138.191 146.77 138.301 146.213 138.52 145.736C138.738 145.256 139.047 144.883 139.445 144.617C139.848 144.352 140.316 144.219 140.852 144.219C141.254 144.219 141.627 144.301 141.971 144.465C142.314 144.625 142.586 144.879 142.785 145.227H142.809V141.875H143.793V150.5H142.809V149.562H142.785C142.562 149.918 142.285 150.18 141.953 150.348C141.621 150.512 141.254 150.594 140.852 150.594ZM141.004 149.715C141.387 149.715 141.719 149.621 142 149.434C142.281 149.242 142.498 148.973 142.65 148.625C142.803 148.277 142.879 147.871 142.879 147.406C142.879 146.938 142.803 146.531 142.65 146.188C142.498 145.844 142.281 145.578 142 145.391C141.719 145.203 141.387 145.109 141.004 145.109C140.648 145.109 140.332 145.195 140.055 145.367C139.781 145.539 139.566 145.795 139.41 146.135C139.254 146.475 139.176 146.898 139.176 147.406C139.176 147.91 139.254 148.334 139.41 148.678C139.566 149.021 139.781 149.281 140.055 149.457C140.332 149.629 140.648 149.715 141.004 149.715Z" fill="#40C4AA"/>
</g>
<path d="M336 127L341.293 132.293C341.683 132.683 341.683 133.317 341.293 133.707L336 139" stroke="#1A1B25" stroke-width="2" stroke-linecap="round" stroke-linejoin="round"/>
<rect x="24" y="181" width="48" height="48" rx="24" fill="#F6F8FA"/>
<g clip-path="url(#clip6_3265_9271)">
<path d="M51.9013 203.506C53.0821 204.349 54.5287 204.846 56.091 204.846V201.841C55.7953 201.841 55.5004 201.81 55.2111 201.749V204.114C53.6489 204.114 52.2026 203.618 51.0215 202.774V208.906C51.0215 211.974 48.5335 214.46 45.4646 214.46C44.3195 214.46 43.2552 214.114 42.3711 213.521C43.3802 214.552 44.7874 215.192 46.3442 215.192C49.4134 215.192 51.9015 212.705 51.9015 209.637V203.506H51.9013ZM52.9868 200.474C52.3833 199.815 51.9871 198.964 51.9013 198.022V197.636H51.0675C51.2774 198.832 51.9934 199.855 52.9868 200.474ZM44.3122 211.167C43.975 210.725 43.7927 210.184 43.7936 209.629C43.7936 208.226 44.9316 207.088 46.3356 207.088C46.5972 207.088 46.8573 207.128 47.1067 207.207V204.135C46.8152 204.095 46.5211 204.078 46.2272 204.085V206.476C45.9776 206.397 45.7174 206.356 45.4557 206.357C44.0518 206.357 42.9138 207.494 42.9138 208.897C42.9138 209.889 43.4826 210.748 44.3122 211.167Z" fill="#FF004F"/>
<path d="M51.0223 202.774C52.2034 203.618 53.6496 204.114 55.2119 204.114V201.749C54.3398 201.563 53.5679 201.108 52.9875 200.474C51.994 199.854 51.2782 198.832 51.0683 197.636H48.8782V209.637C48.8732 211.036 47.7372 212.169 46.3362 212.169C45.5107 212.169 44.7772 211.776 44.3128 211.167C43.4833 210.748 42.9145 209.889 42.9145 208.897C42.9145 207.494 44.0524 206.357 45.4564 206.357C45.7254 206.357 45.9846 206.399 46.2278 206.476V204.085C43.2128 204.147 40.7881 206.609 40.7881 209.637C40.7881 211.149 41.3919 212.519 42.3719 213.521C43.256 214.114 44.3203 214.46 45.4654 214.46C48.5344 214.46 51.0223 211.973 51.0223 208.906L51.0223 202.774Z" fill="black"/>
<path d="M55.2118 201.749V201.109C54.4254 201.11 53.6546 200.89 52.9874 200.474C53.578 201.12 54.3557 201.566 55.2118 201.749M51.0681 197.636C51.0482 197.521 51.0328 197.406 51.0221 197.291V196.904H47.9981V208.906C47.9933 210.305 46.8573 211.438 45.4562 211.438C45.0591 211.438 44.6673 211.346 44.3126 211.167C44.7771 211.776 45.5106 212.169 46.3361 212.169C47.737 212.169 48.8731 211.037 48.8781 209.637V197.636L51.0681 197.636ZM46.2279 204.085V203.404C45.9752 203.369 45.7205 203.352 45.4654 203.352C42.3962 203.352 39.9082 205.839 39.9082 208.906C39.9082 210.829 40.886 212.524 42.3719 213.521C41.3919 212.519 40.7881 211.149 40.7881 209.637C40.7881 206.609 43.2128 204.147 46.2279 204.085Z" fill="#00F2EA"/>
</g>
<g clip-path="url(#clip7_3265_9271)">
<path d="M88.125 191.547V190H97.2969V191.547H93.5859V201.5H91.8359V191.547H88.125ZM98.2188 201.5V193.25H99.8906V201.5H98.2188ZM99.0625 191.805C98.7708 191.805 98.5234 191.706 98.3203 191.508C98.1224 191.31 98.026 191.073 98.0312 190.797C98.026 190.51 98.1224 190.271 98.3203 190.078C98.5234 189.88 98.7708 189.781 99.0625 189.781C99.3438 189.781 99.5833 189.88 99.7812 190.078C99.9844 190.271 100.089 190.51 100.094 190.797C100.089 191.073 99.9844 191.31 99.7812 191.508C99.5833 191.706 99.3438 191.805 99.0625 191.805ZM103.031 198.75L103.008 196.703H103.305L106.734 193.25H108.75L104.844 197.25H104.562L103.031 198.75ZM101.484 201.5V190H103.156V201.5H101.484ZM106.922 201.5L103.844 197.625L105 196.445L108.984 201.5H106.922ZM112.805 201.547C112.378 201.547 111.984 201.474 111.625 201.328C111.271 201.182 110.984 200.953 110.766 200.641C110.552 200.328 110.445 199.922 110.445 199.422V191.227H112.125V199.148C112.125 199.44 112.167 199.656 112.25 199.797C112.339 199.938 112.456 200.029 112.602 200.07C112.747 200.107 112.906 200.125 113.078 200.125C113.182 200.125 113.281 200.122 113.375 200.117C113.469 200.107 113.542 200.096 113.594 200.086L113.766 201.477C113.667 201.492 113.536 201.508 113.375 201.523C113.214 201.539 113.023 201.547 112.805 201.547ZM109.258 194.625V193.25H113.703V194.625H109.258ZM118.344 201.625C117.557 201.625 116.865 201.448 116.266 201.094C115.667 200.734 115.198 200.237 114.859 199.602C114.526 198.961 114.359 198.224 114.359 197.391C114.359 196.547 114.526 195.805 114.859 195.164C115.198 194.523 115.667 194.023 116.266 193.664C116.865 193.305 117.557 193.125 118.344 193.125C119.135 193.125 119.828 193.305 120.422 193.664C121.021 194.023 121.487 194.523 121.82 195.164C122.159 195.805 122.328 196.547 122.328 197.391C122.328 198.224 122.161 198.961 121.828 199.602C121.495 200.237 121.029 200.734 120.43 201.094C119.831 201.448 119.135 201.625 118.344 201.625ZM118.344 200.203C118.792 200.203 119.188 200.086 119.531 199.852C119.875 199.617 120.146 199.289 120.344 198.867C120.542 198.44 120.641 197.948 120.641 197.391C120.641 196.818 120.542 196.32 120.344 195.898C120.146 195.471 119.875 195.138 119.531 194.898C119.193 194.654 118.797 194.531 118.344 194.531C117.891 194.531 117.492 194.651 117.148 194.891C116.805 195.13 116.534 195.464 116.336 195.891C116.143 196.318 116.047 196.818 116.047 197.391C116.052 197.948 116.151 198.44 116.344 198.867C116.542 199.289 116.812 199.617 117.156 199.852C117.5 200.086 117.896 200.203 118.344 200.203ZM125.125 198.75L125.102 196.703H125.398L128.828 193.25H130.844L126.938 197.25H126.656L125.125 198.75ZM123.578 201.5V190H125.25V201.5H123.578ZM129.016 201.5L125.938 197.625L127.094 196.445L131.078 201.5H129.016Z" fill="#1A1B25"/>
</g>
<g clip-path="url(#clip8_3265_9271)">
<path d="M92.3477 222.641C91.5273 222.641 90.8203 222.461 90.2266 222.102C89.6328 221.738 89.1758 221.223 88.8555 220.555C88.5352 219.887 88.375 219.098 88.375 218.188C88.375 217.273 88.5391 216.484 88.8672 215.82C89.1953 215.152 89.6562 214.639 90.25 214.279C90.8477 213.916 91.5469 213.734 92.3477 213.734C92.8008 213.734 93.2305 213.809 93.6367 213.957C94.043 214.105 94.4062 214.32 94.7266 214.602C95.0469 214.883 95.3105 215.223 95.5176 215.621C95.7246 216.02 95.8555 216.469 95.9102 216.969H94.8438C94.7852 216.625 94.6816 216.314 94.5332 216.037C94.3848 215.756 94.1992 215.516 93.9766 215.316C93.7539 215.117 93.5039 214.965 93.2266 214.859C92.9531 214.75 92.6602 214.695 92.3477 214.695C91.7383 214.695 91.2148 214.838 90.7773 215.123C90.3438 215.408 90.0098 215.812 89.7754 216.336C89.5449 216.859 89.4297 217.477 89.4297 218.188C89.4297 218.898 89.541 219.516 89.7637 220.039C89.9902 220.562 90.3203 220.967 90.7539 221.252C91.1875 221.537 91.7188 221.68 92.3477 221.68C92.6719 221.68 92.9766 221.625 93.2617 221.516C93.5508 221.402 93.8086 221.244 94.0352 221.041C94.2617 220.834 94.4453 220.592 94.5859 220.314C94.7305 220.037 94.8164 219.734 94.8438 219.406H95.9102C95.8711 219.879 95.7559 220.312 95.5645 220.707C95.377 221.102 95.125 221.443 94.8086 221.732C94.4961 222.021 94.1309 222.246 93.7129 222.406C93.2949 222.562 92.8398 222.641 92.3477 222.641ZM99.5898 222.594C99.0195 222.594 98.5137 222.459 98.0723 222.189C97.6309 221.916 97.2852 221.541 97.0352 221.064C96.7852 220.584 96.6602 220.035 96.6602 219.418C96.6602 218.793 96.7852 218.24 97.0352 217.76C97.2852 217.279 97.6309 216.902 98.0723 216.629C98.5137 216.355 99.0195 216.219 99.5898 216.219C100.164 216.219 100.67 216.355 101.107 216.629C101.549 216.902 101.895 217.279 102.145 217.76C102.395 218.24 102.52 218.793 102.52 219.418C102.52 220.035 102.395 220.584 102.145 221.064C101.898 221.541 101.555 221.916 101.113 222.189C100.672 222.459 100.164 222.594 99.5898 222.594ZM99.5898 221.691C99.9648 221.691 100.297 221.596 100.586 221.404C100.879 221.209 101.107 220.941 101.271 220.602C101.439 220.258 101.523 219.863 101.523 219.418C101.523 218.965 101.439 218.566 101.271 218.223C101.107 217.875 100.881 217.604 100.592 217.408C100.303 217.209 99.9688 217.109 99.5898 217.109C99.2109 217.109 98.875 217.209 98.582 217.408C98.293 217.604 98.0664 217.875 97.9023 218.223C97.7383 218.566 97.6562 218.965 97.6562 219.418C97.6602 219.863 97.7441 220.258 97.9082 220.602C98.0723 220.941 98.2988 221.209 98.5879 221.404C98.8809 221.596 99.2148 221.691 99.5898 221.691ZM104.535 218.879V222.5H103.551V216.312H104.512V217.309H104.535C104.672 217.008 104.889 216.752 105.186 216.541C105.482 216.326 105.875 216.219 106.363 216.219C106.781 216.219 107.166 216.309 107.518 216.488C107.869 216.664 108.15 216.932 108.361 217.291C108.576 217.65 108.684 218.105 108.684 218.656V222.5H107.699V218.727C107.699 218.191 107.559 217.789 107.277 217.52C107 217.246 106.629 217.109 106.164 217.109C105.863 217.109 105.59 217.17 105.344 217.291C105.098 217.412 104.9 217.604 104.752 217.865C104.607 218.123 104.535 218.461 104.535 218.879ZM110.98 218.879V222.5H109.996V216.312H110.957V217.309H110.98C111.117 217.008 111.334 216.752 111.631 216.541C111.928 216.326 112.32 216.219 112.809 216.219C113.227 216.219 113.611 216.309 113.963 216.488C114.314 216.664 114.596 216.932 114.807 217.291C115.021 217.65 115.129 218.105 115.129 218.656V222.5H114.145V218.727C114.145 218.191 114.004 217.789 113.723 217.52C113.445 217.246 113.074 217.109 112.609 217.109C112.309 217.109 112.035 217.17 111.789 217.291C111.543 217.412 111.346 217.604 111.197 217.865C111.053 218.123 110.98 218.461 110.98 218.879ZM119.008 222.594C118.434 222.594 117.934 222.459 117.508 222.189C117.082 221.916 116.75 221.541 116.512 221.064C116.277 220.588 116.16 220.039 116.16 219.418C116.16 218.793 116.275 218.24 116.506 217.76C116.74 217.279 117.068 216.902 117.49 216.629C117.916 216.355 118.414 216.219 118.984 216.219C119.559 216.219 120.049 216.355 120.455 216.629C120.865 216.902 121.178 217.279 121.393 217.76C121.607 218.24 121.715 218.793 121.715 219.418V219.688H116.699V218.844H120.695C120.684 218.5 120.602 218.199 120.449 217.941C120.297 217.68 120.092 217.477 119.834 217.332C119.576 217.184 119.285 217.109 118.961 217.109C118.59 217.109 118.271 217.201 118.006 217.385C117.74 217.564 117.537 217.799 117.396 218.088C117.26 218.377 117.191 218.684 117.191 219.008V219.652C117.191 220.023 117.264 220.363 117.408 220.672C117.553 220.98 117.76 221.229 118.029 221.416C118.303 221.6 118.629 221.691 119.008 221.691C119.266 221.691 119.504 221.648 119.723 221.562C119.945 221.473 120.135 221.348 120.291 221.188C120.451 221.027 120.562 220.84 120.625 220.625H121.621C121.543 221.02 121.381 221.365 121.135 221.662C120.893 221.955 120.588 222.184 120.221 222.348C119.854 222.512 119.449 222.594 119.008 222.594ZM125.277 222.594C124.73 222.594 124.244 222.459 123.818 222.189C123.396 221.916 123.064 221.541 122.822 221.064C122.584 220.584 122.465 220.035 122.465 219.418C122.465 218.793 122.582 218.24 122.816 217.76C123.055 217.279 123.383 216.902 123.801 216.629C124.223 216.355 124.707 216.219 125.254 216.219C125.797 216.219 126.254 216.334 126.625 216.564C126.996 216.795 127.281 217.076 127.48 217.408C127.68 217.74 127.789 218.062 127.809 218.375H126.801C126.766 218.168 126.686 217.969 126.561 217.777C126.439 217.582 126.27 217.422 126.051 217.297C125.836 217.172 125.57 217.109 125.254 217.109C124.898 217.109 124.586 217.209 124.316 217.408C124.047 217.604 123.836 217.875 123.684 218.223C123.535 218.566 123.461 218.965 123.461 219.418C123.461 219.863 123.537 220.258 123.689 220.602C123.846 220.941 124.059 221.209 124.328 221.404C124.602 221.596 124.914 221.691 125.266 221.691C125.539 221.691 125.787 221.637 126.01 221.527C126.236 221.414 126.416 221.262 126.549 221.07C126.682 220.879 126.75 220.668 126.754 220.438H127.809C127.781 220.789 127.668 221.131 127.469 221.463C127.27 221.791 126.986 222.062 126.619 222.277C126.252 222.488 125.805 222.594 125.277 222.594ZM130.809 222.547C130.543 222.547 130.285 222.496 130.035 222.395C129.785 222.293 129.58 222.133 129.42 221.914C129.26 221.691 129.18 221.402 129.18 221.047V214.812H130.164V220.895C130.164 221.133 130.199 221.307 130.27 221.416C130.34 221.521 130.432 221.588 130.545 221.615C130.658 221.643 130.777 221.656 130.902 221.656C130.973 221.656 131.039 221.652 131.102 221.645C131.168 221.637 131.219 221.629 131.254 221.621L131.418 222.477C131.348 222.492 131.262 222.508 131.16 222.523C131.062 222.539 130.945 222.547 130.809 222.547ZM128.277 217.156V216.312H131.359V217.156H128.277ZM134.734 222.594C134.16 222.594 133.66 222.459 133.234 222.189C132.809 221.916 132.477 221.541 132.238 221.064C132.004 220.588 131.887 220.039 131.887 219.418C131.887 218.793 132.002 218.24 132.232 217.76C132.467 217.279 132.795 216.902 133.217 216.629C133.643 216.355 134.141 216.219 134.711 216.219C135.285 216.219 135.775 216.355 136.182 216.629C136.592 216.902 136.904 217.279 137.119 217.76C137.334 218.24 137.441 218.793 137.441 219.418V219.688H132.426V218.844H136.422C136.41 218.5 136.328 218.199 136.176 217.941C136.023 217.68 135.818 217.477 135.561 217.332C135.303 217.184 135.012 217.109 134.688 217.109C134.316 217.109 133.998 217.201 133.732 217.385C133.467 217.564 133.264 217.799 133.123 218.088C132.986 218.377 132.918 218.684 132.918 219.008V219.652C132.918 220.023 132.99 220.363 133.135 220.672C133.279 220.98 133.486 221.229 133.756 221.416C134.029 221.6 134.355 221.691 134.734 221.691C134.992 221.691 135.23 221.648 135.449 221.562C135.672 221.473 135.861 221.348 136.018 221.188C136.178 221.027 136.289 220.84 136.352 220.625H137.348C137.27 221.02 137.107 221.365 136.861 221.662C136.619 221.955 136.314 222.184 135.947 222.348C135.58 222.512 135.176 222.594 134.734 222.594ZM140.852 222.594C140.316 222.594 139.848 222.461 139.445 222.195C139.047 221.926 138.738 221.553 138.52 221.076C138.301 220.596 138.191 220.039 138.191 219.406C138.191 218.77 138.301 218.213 138.52 217.736C138.738 217.256 139.047 216.883 139.445 216.617C139.848 216.352 140.316 216.219 140.852 216.219C141.254 216.219 141.627 216.301 141.971 216.465C142.314 216.625 142.586 216.879 142.785 217.227H142.809V213.875H143.793V222.5H142.809V221.562H142.785C142.562 221.918 142.285 222.18 141.953 222.348C141.621 222.512 141.254 222.594 140.852 222.594ZM141.004 221.715C141.387 221.715 141.719 221.621 142 221.434C142.281 221.242 142.498 220.973 142.65 220.625C142.803 220.277 142.879 219.871 142.879 219.406C142.879 218.938 142.803 218.531 142.65 218.188C142.498 217.844 142.281 217.578 142 217.391C141.719 217.203 141.387 217.109 141.004 217.109C140.648 217.109 140.332 217.195 140.055 217.367C139.781 217.539 139.566 217.795 139.41 218.135C139.254 218.475 139.176 218.898 139.176 219.406C139.176 219.91 139.254 220.334 139.41 220.678C139.566 221.021 139.781 221.281 140.055 221.457C140.332 221.629 140.648 221.715 141.004 221.715Z" fill="#40C4AA"/>
</g>
<path d="M336 199L341.293 204.293C341.683 204.683 341.683 205.317 341.293 205.707L336 211" stroke="#1A1B25" stroke-width="2" stroke-linecap="round" stroke-linejoin="round"/>
<path d="M33.625 253.469C33.625 254.531 33.4313 255.451 33.0439 256.23C32.6611 257.01 32.1234 257.611 31.4307 258.035C30.7425 258.454 29.9427 258.664 29.0313 258.664C28.1107 258.664 27.304 258.452 26.6113 258.028C25.9186 257.604 25.3786 257.005 24.9912 256.23C24.6038 255.451 24.4102 254.531 24.4102 253.469C24.4102 252.402 24.6038 251.482 24.9912 250.707C25.3786 249.928 25.9186 249.328 26.6113 248.909C27.304 248.485 28.1107 248.273 29.0312 248.273C29.9427 248.273 30.7425 248.485 31.4307 248.909C32.1234 249.328 32.6611 249.928 33.0439 250.707C33.4313 251.482 33.625 252.402 33.625 253.469ZM32.0801 253.469C32.0801 252.685 31.957 252.008 31.7109 251.438C31.4648 250.864 31.1139 250.424 30.6582 250.119C30.2025 249.809 29.6579 249.654 29.0244 249.654C28.3818 249.654 27.8327 249.809 27.377 250.119C26.9212 250.424 26.5726 250.864 26.3311 251.438C26.0895 252.008 25.971 252.685 25.9756 253.469C25.971 254.253 26.0895 254.932 26.3311 255.506C26.5726 256.076 26.9212 256.515 27.377 256.825C27.8372 257.131 28.3887 257.283 29.0313 257.283C29.6647 257.283 30.2093 257.131 30.665 256.825C31.1208 256.515 31.4694 256.076 31.7109 255.506C31.957 254.932 32.0801 254.253 32.0801 253.469ZM37.5283 258.541C37.1546 258.541 36.8105 258.477 36.4961 258.35C36.1862 258.222 35.9355 258.021 35.7441 257.748C35.5573 257.475 35.4639 257.119 35.4639 256.682V249.511H36.9336V256.442C36.9336 256.698 36.9701 256.887 37.043 257.01C37.1204 257.133 37.223 257.213 37.3506 257.249C37.4782 257.281 37.6172 257.297 37.7676 257.297C37.8587 257.297 37.9453 257.295 38.0273 257.29C38.1094 257.281 38.1732 257.272 38.2188 257.263L38.3691 258.479C38.2826 258.493 38.1686 258.507 38.0273 258.521C37.8861 258.534 37.7197 258.541 37.5283 258.541ZM34.4248 252.484V251.281H38.3145V252.484H34.4248ZM40.9531 254.269V258.5H39.4902V248.438H40.9326V252.43H40.9668C41.1309 252.056 41.3952 251.744 41.7598 251.493C42.1243 251.238 42.5892 251.11 43.1543 251.11C43.651 251.11 44.1022 251.217 44.5078 251.432C44.918 251.646 45.2438 251.963 45.4854 252.382C45.7269 252.801 45.8477 253.323 45.8477 253.947V258.5H44.3848V254.125C44.3848 253.555 44.2344 253.122 43.9336 252.826C43.6374 252.53 43.2386 252.382 42.7373 252.382C42.4137 252.382 42.1152 252.448 41.8418 252.58C41.5729 252.712 41.3564 252.917 41.1924 253.195C41.0329 253.473 40.9531 253.831 40.9531 254.269ZM50.3457 258.609C49.653 258.609 49.0514 258.454 48.541 258.145C48.0352 257.83 47.641 257.395 47.3584 256.839C47.0804 256.283 46.9414 255.638 46.9414 254.904C46.9414 254.171 47.0781 253.523 47.3516 252.963C47.6296 252.402 48.0215 251.965 48.5273 251.65C49.0332 251.331 49.6279 251.172 50.3115 251.172C50.9906 251.172 51.5739 251.329 52.0615 251.644C52.5537 251.958 52.9297 252.396 53.1895 252.956C53.4492 253.517 53.5791 254.164 53.5791 254.897V255.273H47.6045V254.2H52.1504C52.1413 253.836 52.0547 253.517 51.8906 253.243C51.7266 252.97 51.5055 252.756 51.2275 252.601C50.9541 252.446 50.6442 252.368 50.2979 252.368C49.9105 252.368 49.5755 252.462 49.293 252.648C49.0104 252.835 48.7939 253.081 48.6436 253.387C48.4932 253.688 48.418 254.009 48.418 254.351V255.26C48.4134 255.652 48.4886 256.012 48.6436 256.34C48.7985 256.663 49.0195 256.923 49.3066 257.119C49.5983 257.311 49.9469 257.406 50.3525 257.406C50.626 257.406 50.8812 257.361 51.1182 257.27C51.3551 257.174 51.5579 257.042 51.7266 256.873C51.8952 256.704 52.0137 256.508 52.082 256.285H53.4902C53.3991 256.75 53.2077 257.158 52.916 257.509C52.6289 257.855 52.2643 258.126 51.8223 258.322C51.3802 258.514 50.888 258.609 50.3457 258.609ZM54.6797 258.5V251.281H56.0811V252.471H56.1221C56.2542 252.07 56.4639 251.753 56.751 251.521C57.0426 251.288 57.4095 251.172 57.8516 251.172C57.9609 251.172 58.0612 251.179 58.1523 251.192C58.248 251.201 58.3255 251.213 58.3848 251.227V252.621C58.321 252.598 58.2161 252.578 58.0703 252.56C57.929 252.537 57.7764 252.525 57.6123 252.525C57.348 252.525 57.1042 252.587 56.8809 252.71C56.6576 252.828 56.4775 253.013 56.3408 253.264C56.2087 253.514 56.1426 253.833 56.1426 254.221V258.5H54.6797ZM62.3838 258.5L66.0137 248.438H67.9141L71.5508 258.5H69.8623L66.9639 249.976H66.9365L63.9971 258.5H62.3838ZM64.3525 255.711V254.439H69.5752V255.711H64.3525ZM74.9893 258.609C74.3239 258.609 73.736 258.452 73.2256 258.138C72.7197 257.823 72.3255 257.386 72.043 256.825C71.7604 256.265 71.6191 255.624 71.6191 254.904C71.6191 254.171 71.7581 253.526 72.0361 252.97C72.3187 252.409 72.7106 251.969 73.2119 251.65C73.7178 251.331 74.3034 251.172 74.9688 251.172C75.6159 251.172 76.165 251.306 76.6162 251.575C77.0674 251.84 77.4137 252.174 77.6553 252.58C77.8968 252.981 78.0267 253.389 78.0449 253.804H76.623C76.582 253.562 76.4932 253.337 76.3564 253.127C76.2243 252.913 76.042 252.74 75.8096 252.607C75.5817 252.475 75.3037 252.409 74.9756 252.409C74.6019 252.409 74.2738 252.514 73.9912 252.724C73.7087 252.933 73.4876 253.225 73.3281 253.599C73.1732 253.968 73.0957 254.403 73.0957 254.904C73.0957 255.392 73.1755 255.82 73.335 256.189C73.499 256.559 73.7223 256.846 74.0049 257.051C74.2874 257.256 74.6133 257.358 74.9824 257.358C75.2741 257.358 75.5384 257.299 75.7754 257.181C76.0124 257.062 76.2015 256.898 76.3428 256.688C76.4886 256.474 76.5661 256.235 76.5752 255.971H78.0449C78.0176 256.426 77.8831 256.855 77.6416 257.256C77.4001 257.657 77.056 257.983 76.6094 258.233C76.1673 258.484 75.6273 258.609 74.9893 258.609ZM82.208 258.609C81.5426 258.609 80.9548 258.452 80.4443 258.138C79.9385 257.823 79.5443 257.386 79.2617 256.825C78.9792 256.265 78.8379 255.624 78.8379 254.904C78.8379 254.171 78.9769 253.526 79.2549 252.97C79.5374 252.409 79.9294 251.969 80.4307 251.65C80.9365 251.331 81.5221 251.172 82.1875 251.172C82.8346 251.172 83.3838 251.306 83.835 251.575C84.2861 251.84 84.6325 252.174 84.874 252.58C85.1156 252.981 85.2454 253.389 85.2637 253.804H83.8418C83.8008 253.562 83.7119 253.337 83.5752 253.127C83.443 252.913 83.2607 252.74 83.0283 252.607C82.8005 252.475 82.5225 252.409 82.1943 252.409C81.8206 252.409 81.4925 252.514 81.21 252.724C80.9274 252.933 80.7064 253.225 80.5469 253.599C80.3919 253.968 80.3145 254.403 80.3145 254.904C80.3145 255.392 80.3942 255.82 80.5537 256.189C80.7178 256.559 80.9411 256.846 81.2236 257.051C81.5062 257.256 81.832 257.358 82.2012 257.358C82.4928 257.358 82.7572 257.299 82.9941 257.181C83.2311 257.062 83.4202 256.898 83.5615 256.688C83.7074 256.474 83.7848 256.235 83.7939 255.971H85.2637C85.2363 256.426 85.1019 256.855 84.8604 257.256C84.6188 257.657 84.2747 257.983 83.8281 258.233C83.3861 258.484 82.846 258.609 82.208 258.609ZM89.543 258.609C88.8548 258.609 88.2487 258.454 87.7246 258.145C87.2005 257.83 86.7904 257.395 86.4941 256.839C86.2025 256.278 86.0566 255.633 86.0566 254.904C86.0566 254.166 86.2025 253.517 86.4941 252.956C86.7904 252.396 87.2005 251.958 87.7246 251.644C88.2487 251.329 88.8548 251.172 89.543 251.172C90.2357 251.172 90.8418 251.329 91.3613 251.644C91.8854 251.958 92.2933 252.396 92.585 252.956C92.8812 253.517 93.0293 254.166 93.0293 254.904C93.0293 255.633 92.8835 256.278 92.5918 256.839C92.3001 257.395 91.8923 257.83 91.3682 258.145C90.8441 258.454 90.2357 258.609 89.543 258.609ZM89.543 257.365C89.9349 257.365 90.2812 257.263 90.582 257.058C90.8828 256.853 91.1198 256.565 91.293 256.196C91.4661 255.823 91.5527 255.392 91.5527 254.904C91.5527 254.403 91.4661 253.968 91.293 253.599C91.1198 253.225 90.8828 252.933 90.582 252.724C90.2858 252.509 89.9395 252.402 89.543 252.402C89.1465 252.402 88.7979 252.507 88.4971 252.717C88.1963 252.926 87.9593 253.218 87.7861 253.592C87.6175 253.965 87.5332 254.403 87.5332 254.904C87.5378 255.392 87.6243 255.823 87.793 256.196C87.9661 256.565 88.2031 256.853 88.5039 257.058C88.8047 257.263 89.151 257.365 89.543 257.365ZM98.9834 255.451V251.281H100.446V258.5H99.0244V257.283H98.9971C98.8376 257.657 98.5755 257.971 98.2109 258.227C97.8509 258.482 97.3883 258.609 96.8232 258.609C96.3311 258.609 95.8799 258.502 95.4697 258.288C95.0596 258.074 94.7314 257.755 94.4854 257.331C94.2438 256.907 94.123 256.385 94.123 255.766V251.281H95.5928V255.588C95.5928 256.162 95.7432 256.597 96.0439 256.894C96.3447 257.19 96.7435 257.338 97.2402 257.338C97.5684 257.338 97.8623 257.272 98.1221 257.14C98.3864 257.007 98.596 256.802 98.751 256.524C98.9059 256.242 98.9834 255.884 98.9834 255.451ZM103.317 254.33V258.5H101.848V251.281H103.276V252.498H103.304C103.463 252.12 103.723 251.805 104.083 251.555C104.443 251.299 104.906 251.172 105.471 251.172C105.972 251.172 106.425 251.279 106.831 251.493C107.241 251.707 107.567 252.026 107.809 252.45C108.05 252.869 108.171 253.391 108.171 254.016V258.5H106.708V254.193C106.708 253.619 106.558 253.184 106.257 252.888C105.961 252.591 105.56 252.443 105.054 252.443C104.73 252.443 104.436 252.509 104.172 252.642C103.912 252.774 103.705 252.979 103.55 253.257C103.395 253.535 103.317 253.893 103.317 254.33ZM112.081 258.541C111.707 258.541 111.363 258.477 111.049 258.35C110.739 258.222 110.488 258.021 110.297 257.748C110.11 257.475 110.017 257.119 110.017 256.682V249.511H111.486V256.442C111.486 256.698 111.523 256.887 111.596 257.01C111.673 257.133 111.776 257.213 111.903 257.249C112.031 257.281 112.17 257.297 112.32 257.297C112.411 257.297 112.498 257.295 112.58 257.29C112.662 257.281 112.726 257.272 112.771 257.263L112.922 258.479C112.835 258.493 112.721 258.507 112.58 258.521C112.439 258.534 112.272 258.541 112.081 258.541ZM108.978 252.484V251.281H112.867V252.484H108.978ZM119.396 253.51H117.994C117.99 253.159 117.857 252.881 117.598 252.676C117.338 252.471 116.998 252.368 116.579 252.368C116.187 252.368 115.866 252.452 115.615 252.621C115.365 252.785 115.239 253.004 115.239 253.277C115.239 253.514 115.33 253.706 115.513 253.852C115.7 253.997 115.957 254.107 116.285 254.18L117.516 254.453C118.199 254.608 118.71 254.847 119.047 255.171C119.384 255.49 119.553 255.907 119.553 256.422C119.553 256.882 119.427 257.276 119.177 257.604C118.926 257.933 118.58 258.183 118.138 258.356C117.7 258.525 117.206 258.609 116.654 258.609C116.089 258.609 115.586 258.523 115.144 258.35C114.701 258.176 114.346 257.917 114.077 257.57C113.813 257.224 113.662 256.793 113.626 256.278H115.082C115.123 256.666 115.276 256.953 115.54 257.14C115.809 257.326 116.174 257.42 116.634 257.42C117.08 257.42 117.431 257.338 117.687 257.174C117.946 257.01 118.076 256.786 118.076 256.504C118.076 256.258 117.983 256.071 117.796 255.943C117.609 255.811 117.361 255.711 117.051 255.643L115.868 255.383C115.18 255.228 114.66 254.977 114.31 254.631C113.963 254.28 113.79 253.84 113.79 253.312C113.79 252.883 113.906 252.509 114.139 252.19C114.376 251.867 114.701 251.616 115.116 251.438C115.531 251.261 116.014 251.172 116.565 251.172C117.381 251.172 118.051 251.379 118.575 251.794C119.104 252.204 119.377 252.776 119.396 253.51Z" fill="#1A1B25"/>
<rect x="24" y="278" width="48" height="48" rx="24" fill="#F6F8FA"/>
<path d="M52.7389 294.553L48.5756 299.312L44.9756 294.553H39.7598L45.9906 302.699L40.0856 309.449H42.6139L47.1714 304.24L51.1548 309.449H56.2398L49.7448 300.862L55.2656 294.553H52.7389ZM51.8523 307.936L42.7114 295.985H44.2139L53.2523 307.935L51.8523 307.936Z" fill="black"/>
<g clip-path="url(#clip9_3265_9271)">
<path d="M88 298.5L92.0234 292.531L88.25 287H90.2812L93.0703 291.219L95.8672 287H97.8828L94.1094 292.531L98.1328 298.5H96.0859L93.0625 293.906L90.0312 298.5H88Z" fill="#1A1B25"/>
</g>
<g clip-path="url(#clip10_3265_9271)">
<path d="M88.6562 319.5V310.875H89.6992L94.4453 317.789H94.4688V310.875H95.5V319.5H94.457L89.7109 312.586H89.6875V319.5H88.6562ZM99.4609 319.594C98.8906 319.594 98.3848 319.459 97.9434 319.189C97.502 318.916 97.1562 318.541 96.9062 318.064C96.6562 317.584 96.5312 317.035 96.5312 316.418C96.5312 315.793 96.6562 315.24 96.9062 314.76C97.1562 314.279 97.502 313.902 97.9434 313.629C98.3848 313.355 98.8906 313.219 99.4609 313.219C100.035 313.219 100.541 313.355 100.979 313.629C101.42 313.902 101.766 314.279 102.016 314.76C102.266 315.24 102.391 315.793 102.391 316.418C102.391 317.035 102.266 317.584 102.016 318.064C101.77 318.541 101.426 318.916 100.984 319.189C100.543 319.459 100.035 319.594 99.4609 319.594ZM99.4609 318.691C99.8359 318.691 100.168 318.596 100.457 318.404C100.75 318.209 100.979 317.941 101.143 317.602C101.311 317.258 101.395 316.863 101.395 316.418C101.395 315.965 101.311 315.566 101.143 315.223C100.979 314.875 100.752 314.604 100.463 314.408C100.174 314.209 99.8398 314.109 99.4609 314.109C99.082 314.109 98.7461 314.209 98.4531 314.408C98.1641 314.604 97.9375 314.875 97.7734 315.223C97.6094 315.566 97.5273 315.965 97.5273 316.418C97.5312 316.863 97.6152 317.258 97.7793 317.602C97.9434 317.941 98.1699 318.209 98.459 318.404C98.752 318.596 99.0859 318.691 99.4609 318.691ZM105.203 319.547C104.938 319.547 104.68 319.496 104.43 319.395C104.18 319.293 103.975 319.133 103.814 318.914C103.654 318.691 103.574 318.402 103.574 318.047V311.812H104.559V317.895C104.559 318.133 104.594 318.307 104.664 318.416C104.734 318.521 104.826 318.588 104.939 318.615C105.053 318.643 105.172 318.656 105.297 318.656C105.367 318.656 105.434 318.652 105.496 318.645C105.562 318.637 105.613 318.629 105.648 318.621L105.812 319.477C105.742 319.492 105.656 319.508 105.555 319.523C105.457 319.539 105.34 319.547 105.203 319.547ZM102.672 314.156V313.312H105.754V314.156H102.672ZM113.875 319.641C113.055 319.641 112.348 319.461 111.754 319.102C111.16 318.738 110.703 318.223 110.383 317.555C110.062 316.887 109.902 316.098 109.902 315.188C109.902 314.273 110.066 313.484 110.395 312.82C110.723 312.152 111.184 311.639 111.777 311.279C112.375 310.916 113.074 310.734 113.875 310.734C114.328 310.734 114.758 310.809 115.164 310.957C115.57 311.105 115.934 311.32 116.254 311.602C116.574 311.883 116.838 312.223 117.045 312.621C117.252 313.02 117.383 313.469 117.438 313.969H116.371C116.312 313.625 116.209 313.314 116.061 313.037C115.912 312.756 115.727 312.516 115.504 312.316C115.281 312.117 115.031 311.965 114.754 311.859C114.48 311.75 114.188 311.695 113.875 311.695C113.266 311.695 112.742 311.838 112.305 312.123C111.871 312.408 111.537 312.812 111.303 313.336C111.072 313.859 110.957 314.477 110.957 315.188C110.957 315.898 111.068 316.516 111.291 317.039C111.518 317.562 111.848 317.967 112.281 318.252C112.715 318.537 113.246 318.68 113.875 318.68C114.199 318.68 114.504 318.625 114.789 318.516C115.078 318.402 115.336 318.244 115.562 318.041C115.789 317.834 115.973 317.592 116.113 317.314C116.258 317.037 116.344 316.734 116.371 316.406H117.438C117.398 316.879 117.283 317.312 117.092 317.707C116.904 318.102 116.652 318.443 116.336 318.732C116.023 319.021 115.658 319.246 115.24 319.406C114.822 319.562 114.367 319.641 113.875 319.641ZM121.117 319.594C120.547 319.594 120.041 319.459 119.6 319.189C119.158 318.916 118.812 318.541 118.562 318.064C118.312 317.584 118.188 317.035 118.188 316.418C118.188 315.793 118.312 315.24 118.562 314.76C118.812 314.279 119.158 313.902 119.6 313.629C120.041 313.355 120.547 313.219 121.117 313.219C121.691 313.219 122.197 313.355 122.635 313.629C123.076 313.902 123.422 314.279 123.672 314.76C123.922 315.24 124.047 315.793 124.047 316.418C124.047 317.035 123.922 317.584 123.672 318.064C123.426 318.541 123.082 318.916 122.641 319.189C122.199 319.459 121.691 319.594 121.117 319.594ZM121.117 318.691C121.492 318.691 121.824 318.596 122.113 318.404C122.406 318.209 122.635 317.941 122.799 317.602C122.967 317.258 123.051 316.863 123.051 316.418C123.051 315.965 122.967 315.566 122.799 315.223C122.635 314.875 122.408 314.604 122.119 314.408C121.83 314.209 121.496 314.109 121.117 314.109C120.738 314.109 120.402 314.209 120.109 314.408C119.82 314.604 119.594 314.875 119.43 315.223C119.266 315.566 119.184 315.965 119.184 316.418C119.188 316.863 119.271 317.258 119.436 317.602C119.6 317.941 119.826 318.209 120.115 318.404C120.408 318.596 120.742 318.691 121.117 318.691ZM126.062 315.879V319.5H125.078V313.312H126.039V314.309H126.062C126.199 314.008 126.416 313.752 126.713 313.541C127.01 313.326 127.402 313.219 127.891 313.219C128.309 313.219 128.693 313.309 129.045 313.488C129.396 313.664 129.678 313.932 129.889 314.291C130.104 314.65 130.211 315.105 130.211 315.656V319.5H129.227V315.727C129.227 315.191 129.086 314.789 128.805 314.52C128.527 314.246 128.156 314.109 127.691 314.109C127.391 314.109 127.117 314.17 126.871 314.291C126.625 314.412 126.428 314.604 126.279 314.865C126.135 315.123 126.062 315.461 126.062 315.879ZM132.508 315.879V319.5H131.523V313.312H132.484V314.309H132.508C132.645 314.008 132.861 313.752 133.158 313.541C133.455 313.326 133.848 313.219 134.336 313.219C134.754 313.219 135.139 313.309 135.49 313.488C135.842 313.664 136.123 313.932 136.334 314.291C136.549 314.65 136.656 315.105 136.656 315.656V319.5H135.672V315.727C135.672 315.191 135.531 314.789 135.25 314.52C134.973 314.246 134.602 314.109 134.137 314.109C133.836 314.109 133.562 314.17 133.316 314.291C133.07 314.412 132.873 314.604 132.725 314.865C132.58 315.123 132.508 315.461 132.508 315.879ZM140.535 319.594C139.961 319.594 139.461 319.459 139.035 319.189C138.609 318.916 138.277 318.541 138.039 318.064C137.805 317.588 137.688 317.039 137.688 316.418C137.688 315.793 137.803 315.24 138.033 314.76C138.268 314.279 138.596 313.902 139.018 313.629C139.443 313.355 139.941 313.219 140.512 313.219C141.086 313.219 141.576 313.355 141.982 313.629C142.393 313.902 142.705 314.279 142.92 314.76C143.135 315.24 143.242 315.793 143.242 316.418V316.688H138.227V315.844H142.223C142.211 315.5 142.129 315.199 141.977 314.941C141.824 314.68 141.619 314.477 141.361 314.332C141.104 314.184 140.812 314.109 140.488 314.109C140.117 314.109 139.799 314.201 139.533 314.385C139.268 314.564 139.064 314.799 138.924 315.088C138.787 315.377 138.719 315.684 138.719 316.008V316.652C138.719 317.023 138.791 317.363 138.936 317.672C139.08 317.98 139.287 318.229 139.557 318.416C139.83 318.6 140.156 318.691 140.535 318.691C140.793 318.691 141.031 318.648 141.25 318.562C141.473 318.473 141.662 318.348 141.818 318.188C141.979 318.027 142.09 317.84 142.152 317.625H143.148C143.07 318.02 142.908 318.365 142.662 318.662C142.42 318.955 142.115 319.184 141.748 319.348C141.381 319.512 140.977 319.594 140.535 319.594ZM146.805 319.594C146.258 319.594 145.771 319.459 145.346 319.189C144.924 318.916 144.592 318.541 144.35 318.064C144.111 317.584 143.992 317.035 143.992 316.418C143.992 315.793 144.109 315.24 144.344 314.76C144.582 314.279 144.91 313.902 145.328 313.629C145.75 313.355 146.234 313.219 146.781 313.219C147.324 313.219 147.781 313.334 148.152 313.564C148.523 313.795 148.809 314.076 149.008 314.408C149.207 314.74 149.316 315.062 149.336 315.375H148.328C148.293 315.168 148.213 314.969 148.088 314.777C147.967 314.582 147.797 314.422 147.578 314.297C147.363 314.172 147.098 314.109 146.781 314.109C146.426 314.109 146.113 314.209 145.844 314.408C145.574 314.604 145.363 314.875 145.211 315.223C145.062 315.566 144.988 315.965 144.988 316.418C144.988 316.863 145.064 317.258 145.217 317.602C145.373 317.941 145.586 318.209 145.855 318.404C146.129 318.596 146.441 318.691 146.793 318.691C147.066 318.691 147.314 318.637 147.537 318.527C147.764 318.414 147.943 318.262 148.076 318.07C148.209 317.879 148.277 317.668 148.281 317.438H149.336C149.309 317.789 149.195 318.131 148.996 318.463C148.797 318.791 148.514 319.062 148.146 319.277C147.779 319.488 147.332 319.594 146.805 319.594ZM152.336 319.547C152.07 319.547 151.812 319.496 151.562 319.395C151.312 319.293 151.107 319.133 150.947 318.914C150.787 318.691 150.707 318.402 150.707 318.047V311.812H151.691V317.895C151.691 318.133 151.727 318.307 151.797 318.416C151.867 318.521 151.959 318.588 152.072 318.615C152.186 318.643 152.305 318.656 152.43 318.656C152.5 318.656 152.566 318.652 152.629 318.645C152.695 318.637 152.746 318.629 152.781 318.621L152.945 319.477C152.875 319.492 152.789 319.508 152.688 319.523C152.59 319.539 152.473 319.547 152.336 319.547ZM149.805 314.156V313.312H152.887V314.156H149.805ZM156.262 319.594C155.688 319.594 155.188 319.459 154.762 319.189C154.336 318.916 154.004 318.541 153.766 318.064C153.531 317.588 153.414 317.039 153.414 316.418C153.414 315.793 153.529 315.24 153.76 314.76C153.994 314.279 154.322 313.902 154.744 313.629C155.17 313.355 155.668 313.219 156.238 313.219C156.812 313.219 157.303 313.355 157.709 313.629C158.119 313.902 158.432 314.279 158.646 314.76C158.861 315.24 158.969 315.793 158.969 316.418V316.688H153.953V315.844H157.949C157.938 315.5 157.855 315.199 157.703 314.941C157.551 314.68 157.346 314.477 157.088 314.332C156.83 314.184 156.539 314.109 156.215 314.109C155.844 314.109 155.525 314.201 155.26 314.385C154.994 314.564 154.791 314.799 154.65 315.088C154.514 315.377 154.445 315.684 154.445 316.008V316.652C154.445 317.023 154.518 317.363 154.662 317.672C154.807 317.98 155.014 318.229 155.283 318.416C155.557 318.6 155.883 318.691 156.262 318.691C156.52 318.691 156.758 318.648 156.977 318.562C157.199 318.473 157.389 318.348 157.545 318.188C157.705 318.027 157.816 317.84 157.879 317.625H158.875C158.797 318.02 158.635 318.365 158.389 318.662C158.146 318.955 157.842 319.184 157.475 319.348C157.107 319.512 156.703 319.594 156.262 319.594ZM162.379 319.594C161.844 319.594 161.375 319.461 160.973 319.195C160.574 318.926 160.266 318.553 160.047 318.076C159.828 317.596 159.719 317.039 159.719 316.406C159.719 315.77 159.828 315.213 160.047 314.736C160.266 314.256 160.574 313.883 160.973 313.617C161.375 313.352 161.844 313.219 162.379 313.219C162.781 313.219 163.154 313.301 163.498 313.465C163.842 313.625 164.113 313.879 164.312 314.227H164.336V310.875H165.32V319.5H164.336V318.562H164.312C164.09 318.918 163.812 319.18 163.48 319.348C163.148 319.512 162.781 319.594 162.379 319.594ZM162.531 318.715C162.914 318.715 163.246 318.621 163.527 318.434C163.809 318.242 164.025 317.973 164.178 317.625C164.33 317.277 164.406 316.871 164.406 316.406C164.406 315.938 164.33 315.531 164.178 315.188C164.025 314.844 163.809 314.578 163.527 314.391C163.246 314.203 162.914 314.109 162.531 314.109C162.176 314.109 161.859 314.195 161.582 314.367C161.309 314.539 161.094 314.795 160.938 315.135C160.781 315.475 160.703 315.898 160.703 316.406C160.703 316.91 160.781 317.334 160.938 317.678C161.094 318.021 161.309 318.281 161.582 318.457C161.859 318.629 162.176 318.715 162.531 318.715Z" fill="#818898"/>
</g>
<path d="M336 296L341.293 301.293C341.683 301.683 341.683 302.317 341.293 302.707L336 308" stroke="#1A1B25" stroke-width="2" stroke-linecap="round" stroke-linejoin="round"/>
<defs>
<radialGradient id="paint0_radial_3265_9271" cx="0" cy="0" r="1" gradientUnits="userSpaceOnUse" gradientTransform="translate(43.3125 144.54) rotate(-90) scale(19.8215 18.4355)">
<stop stop-color="#FFDD55"/>
<stop offset="0.1" stop-color="#FFDD55"/>
<stop offset="0.5" stop-color="#FF543E"/>
<stop offset="1" stop-color="#C837AB"/>
</radialGradient>
<radialGradient id="paint1_radial_3265_9271" cx="0" cy="0" r="1" gradientUnits="userSpaceOnUse" gradientTransform="translate(34.6499 124.441) rotate(78.681) scale(8.86031 36.5225)">
<stop stop-color="#3771C8"/>
<stop offset="0.128" stop-color="#3771C8"/>
<stop offset="1" stop-color="#6600FF" stop-opacity="0"/>
</radialGradient>
<clipPath id="clip0_3265_9271">
<rect width="20" height="20" fill="white" transform="translate(38 51)"/>
</clipPath>
<clipPath id="clip1_3265_9271">
<rect width="69" height="26" fill="white" transform="translate(88 38.5)"/>
</clipPath>
<clipPath id="clip2_3265_9271">
<rect width="125" height="19" fill="white" transform="translate(88 64.5)"/>
</clipPath>
<clipPath id="clip3_3265_9271">
<rect width="20" height="20" fill="white" transform="translate(38 123)"/>
</clipPath>
<clipPath id="clip4_3265_9271">
<rect width="70" height="26" fill="white" transform="translate(88 110.5)"/>
</clipPath>
<clipPath id="clip5_3265_9271">
<rect width="137" height="19" fill="white" transform="translate(88 136.5)"/>
</clipPath>
<clipPath id="clip6_3265_9271">
<rect width="20" height="20" fill="white" transform="translate(38 195)"/>
</clipPath>
<clipPath id="clip7_3265_9271">
<rect width="44" height="26" fill="white" transform="translate(88 182.5)"/>
</clipPath>
<clipPath id="clip8_3265_9271">
<rect width="186" height="19" fill="white" transform="translate(88 208.5)"/>
</clipPath>
<clipPath id="clip9_3265_9271">
<rect width="11" height="26" fill="white" transform="translate(88 279.5)"/>
</clipPath>
<clipPath id="clip10_3265_9271">
<rect width="223" height="19" fill="white" transform="translate(88 305.5)"/>
</clipPath>
</defs>
</svg>
